<?xml version="1.0" standalone="no"?>
<!DOCTYPE svg PUBLIC "-//W3C//DTD SVG 1.1//EN" "http://www.w3.org/Graphics/SVG/1.1/DTD/svg11.dtd" >
<svg xmlns="http://www.w3.org/2000/svg" xmlns:xlink="http://www.w3.org/1999/xlink" version="1.1">
<metadata></metadata>
<defs>
<font id="sansitabold" horiz-adv-x="1189" >
<font-face units-per-em="2048" ascent="1638" descent="-410" />
<missing-glyph horiz-adv-x="358" />
<glyph unicode="&#xfb01;" horiz-adv-x="1208" d="M6 952v92h141l7 95q18 336 493 336q174 0 316.5 -39t142.5 -146q0 -74 -63.5 -110.5t-151.5 -36.5q-78 0 -131 26q14 41 14 95q0 59 -38 87.5t-101 28.5q-96 0 -136 -56t-40 -165v-115h622v-839q0 -57 14.5 -100.5t49.5 -75.5q-23 -29 -69 -44.5t-91 -15.5 q-106 0 -161.5 54.5t-55.5 160.5v768h-307v-952l-314 -29v981h-141z" />
<glyph unicode="&#xfb02;" horiz-adv-x="1210" d="M6 952v92h141l7 95q12 180 140 258t347 78q143 0 236 -29l204 20v-1261q0 -57 14.5 -100.5t49.5 -75.5q-23 -29 -70 -44.5t-92 -15.5q-104 0 -159.5 54.5t-55.5 160.5v1039q0 76 -31.5 111.5t-103.5 35.5q-104 0 -139 -58.5t-35 -162.5v-105h203v-92h-201v-952l-314 -29 v981h-141z" />
<glyph horiz-adv-x="0" />
<glyph unicode="&#xd;" horiz-adv-x="358" />
<glyph horiz-adv-x="0" />
<glyph horiz-adv-x="0" />
<glyph unicode=" "  horiz-adv-x="358" />
<glyph unicode="&#x09;" horiz-adv-x="358" />
<glyph unicode="&#xa0;" horiz-adv-x="358" />
<glyph unicode="!" horiz-adv-x="509" d="M66 102q0 72 54 112t138 40q82 0 132 -39t50 -109q0 -72 -53 -109.5t-137 -37.5q-82 0 -133 37t-51 106zM96 1339q27 25 69 40.5t83 15.5q162 0 162 -176q0 -51 -4.5 -116t-6.5 -89l-4 -45l-49 -559q-29 -20 -82 -21q-72 0 -94.5 38t-28.5 124z" />
<glyph unicode="&#x22;" horiz-adv-x="811" d="M59 1462q57 12 103 13q100 0 145 -46.5t45 -148.5q0 -76 -29.5 -167t-70.5 -140h-170q8 68 8 168q0 178 -31 321zM446 1462q57 12 103 13q100 0 145 -46.5t45 -148.5q0 -76 -29.5 -167t-70.5 -140h-170q8 68 8 168q0 178 -31 321z" />
<glyph unicode="#" d="M37 410q0 61 29.5 95t83.5 34h122v260h-215q-20 41 -20 82q0 66 29.5 97.5t83.5 31.5h122v221q0 59 33 91t96 32q49 0 88 -23v-321h222v221q0 59 32.5 91t96.5 32q49 0 88 -23v-321h205q20 -37 20 -82q0 -63 -29.5 -96t-83.5 -33h-112v-260h205q20 -41 20 -82 q0 -61 -29.5 -95t-83.5 -34h-112v-205q0 -57 -33 -90t-96 -33q-43 0 -88 23v305h-222v-205q0 -57 -32.5 -90t-96.5 -33q-43 0 -88 23v305h-215q-20 41 -20 82zM489 539h222v260h-222v-260z" />
<glyph unicode="$" d="M113 242q0 90 58 145t148 55q68 0 107 -22q-14 -63 -14 -109q0 -213 176 -213q82 0 133 46t51 124q0 63 -36 112.5t-88 83.5t-144 83q-113 59 -183.5 108.5t-119.5 127t-49 188.5q0 160 107.5 253t262.5 119v80q0 57 25.5 91t79.5 34q41 0 86 -22v-178q143 -12 242.5 -75 t99.5 -192q0 -90 -57.5 -139t-149.5 -49q-63 0 -107 22q14 51 15 119q0 82 -36 128t-114 46q-68 0 -107.5 -36.5t-39.5 -104.5q0 -72 36.5 -125t93 -90t150.5 -86q111 -57 178.5 -104.5t114.5 -120t47 -176.5q0 -185 -114.5 -282t-288.5 -120v-82q0 -57 -25.5 -90t-79.5 -33 q-41 0 -86 23v176q-156 12 -264 78.5t-108 206.5z" />
<glyph unicode="%" horiz-adv-x="1992" d="M74 981q0 182 92 293.5t268 111.5t268.5 -106t92.5 -285q0 -186 -92.5 -300.5t-268.5 -114.5q-174 0 -267 111.5t-93 289.5zM328 987q0 -137 20.5 -220t85.5 -83q63 0 84 83t21 220q0 131 -21.5 214t-83.5 83q-61 0 -83.5 -83t-22.5 -214zM451 41l849 1292 q27 43 54.5 66.5t66.5 23.5t72 -25.5t53 -68.5l-850 -1290q-27 -43 -54.5 -66.5t-66.5 -23.5t-71.5 25.5t-52.5 66.5zM1198 360q0 182 93 294t270 112q176 0 267 -106.5t91 -286.5q0 -184 -91 -300t-267 -116q-174 0 -268.5 111.5t-94.5 291.5zM1454 367q0 -139 20.5 -222.5 t86.5 -83.5q63 0 83.5 84t20.5 222q0 131 -21.5 214t-82.5 83q-64 0 -85.5 -82t-21.5 -215z" />
<glyph unicode="&#x26;" horiz-adv-x="1431" d="M61 385q0 129 69 212t189 126q-104 195 -104 336q0 164 127 248t320 86q170 0 285.5 -61.5t115.5 -196.5q0 -84 -57.5 -133.5t-141.5 -49.5q-63 0 -102 25q12 49 12 102q0 80 -32.5 126t-102.5 46q-131 0 -131 -170q0 -119 60.5 -259t161.5 -272t220 -226q20 74 21 184 q0 156 -86 240q25 16 62.5 26t72.5 10q115 0 172 -65.5t57 -181.5q0 -180 -108 -324q84 -31 149 -31q76 0 119 25q33 -50 33 -107q0 -72 -53.5 -106.5t-141.5 -34.5q-127 0 -289 90q-152 -92 -348 -92q-154 0 -277.5 47t-197.5 143.5t-74 237.5zM360 453q0 -154 83 -245 t233 -91q80 0 137 24q-109 84 -219.5 204t-196.5 249q-16 -25 -26.5 -62.5t-10.5 -78.5z" />
<glyph unicode="'" horiz-adv-x="423" d="M59 1462q57 12 103 13q100 0 145 -46.5t45 -148.5q0 -76 -29.5 -167t-70.5 -140h-170q8 68 8 168q0 178 -31 321z" />
<glyph unicode="(" horiz-adv-x="718" d="M164 614q0 279 76.5 514.5t204.5 372.5t276 137q71 0 104 -41q-193 -139 -288 -399t-95 -584t95.5 -583.5t287.5 -399.5q-33 -41 -104 -41q-147 0 -275.5 137.5t-205 373t-76.5 513.5z" />
<glyph unicode=")" horiz-adv-x="718" d="M-106 -367q193 137 287.5 397.5t94.5 583.5q0 324 -95 584t-287 399q39 41 110 41q152 0 278 -137t199.5 -371.5t73.5 -515.5q0 -279 -73.5 -514t-199.5 -372.5t-278 -137.5q-74 0 -110 43z" />
<glyph unicode="*" horiz-adv-x="903" d="M37 1067q0 35 8 59q27 82 113 82q41 0 96 -18q41 -14 106 -47l-34 256q45 29 98 28q72 0 98.5 -50t26.5 -130q0 -51 -12 -106l227 108q39 -31 59 -84q8 -33 8 -43q0 -49 -37.5 -79.5t-103.5 -53.5q-39 -12 -86 -18l172 -183q-18 -49 -63 -81q-33 -25 -70 -25 q-66 0 -137 98q-43 66 -68 127l-139 -256q-55 4 -96 35q-51 37 -51 88q0 55 57 131q33 43 67 76l-235 43q-4 14 -4 43z" />
<glyph unicode="+" d="M166 479q0 51 29.5 80t83.5 29h206v241q0 59 31 91t88 32q55 0 90 -20v-344h310q20 -49 20 -82q0 -51 -29.5 -80t-83.5 -29h-217v-260q0 -57 -31.5 -90t-89.5 -33q-53 0 -88 21v362h-299q-20 49 -20 82z" />
<glyph unicode="," horiz-adv-x="495" d="M63 -250q86 127 87 268q0 102 -50 193q23 14 61 23.5t75 9.5q96 0 147 -52.5t51 -150.5q0 -78 -39 -147.5t-105.5 -112.5t-142.5 -43q-45 0 -84 12z" />
<glyph unicode="-" horiz-adv-x="800" d="M78 461q0 117 131 123l496 20q8 -16 13 -39.5t5 -40.5q0 -115 -133 -121l-494 -20q-8 14 -13 37.5t-5 40.5z" />
<glyph unicode="." horiz-adv-x="505" d="M66 102q0 72 54 112t138 40q82 0 132 -39t50 -109q0 -72 -53 -109.5t-137 -37.5q-82 0 -133 37t-51 106z" />
<glyph unicode="/" horiz-adv-x="684" d="M63 -297q0 31 9 80l317 1847q37 8 80 8q68 0 110 -26.5t42 -87.5q0 -33 -9 -78l-317 -1849q-27 -6 -80 -7q-152 0 -152 113z" />
<glyph unicode="0" d="M57 668q0 328 131 526.5t406 198.5q276 0 407.5 -188.5t131.5 -510.5q0 -326 -134.5 -532.5t-404.5 -206.5q-268 0 -402.5 197.5t-134.5 515.5zM408 682q0 -270 38.5 -425t147.5 -155q111 0 149.5 155t38.5 425q0 258 -38.5 410.5t-149.5 152.5q-109 0 -147.5 -152.5 t-38.5 -410.5z" />
<glyph unicode="1" d="M70 1087q164 53 346 134.5t338 167.5l88 -43v-1178h282v-168h-970v168h348v874q-98 -66 -166 -96.5t-125 -30.5q-74 0 -107.5 43t-33.5 129z" />
<glyph unicode="2" d="M72 150q162 131 290 266q164 143 257.5 267t93.5 253q0 109 -73 166t-196 57q-195 0 -290 -217q-39 20 -57.5 58t-22.5 96q4 98 70.5 164.5t168 99.5t211.5 33q244 0 390.5 -102.5t146.5 -299.5q0 -168 -109.5 -316.5t-353.5 -336.5q-88 -61 -149 -102l645 10l-9 -246 h-999z" />
<glyph unicode="3" d="M90 242q0 84 53 116q90 -170 314 -170q135 0 210.5 57.5t75.5 164.5q0 111 -69.5 159.5t-200.5 48.5q-37 0 -86 -4v144q147 2 241.5 53t94.5 168q0 88 -74 133t-194 45q-182 0 -269 -186q-70 33 -80 133q0 96 65 161.5t165 96.5t209 31q217 0 347 -81t130 -249 q0 -113 -64.5 -201t-175.5 -131q147 -25 228.5 -109.5t81.5 -226.5q0 -137 -73 -236.5t-205 -151.5t-308 -52q-170 0 -293 70.5t-123 216.5z" />
<glyph unicode="4" d="M14 373q0 61 54 137l573 842h340v-871h201l-17 -211h-182v-270h-350v270h-557q-29 10 -45.5 37t-16.5 66zM250 481h389v576z" />
<glyph unicode="5" d="M72 242q0 84 53 116q82 -170 348 -170q119 0 195.5 62.5t76.5 169.5q0 129 -94 180t-264 51q-123 0 -256 -18l64 719h780l18 -252h-628l-25 -266q102 12 223 12q258 0 394.5 -100.5t136.5 -319.5q0 -141 -74 -247.5t-204 -165t-294 -58.5q-188 0 -319 71.5t-131 215.5z " />
<glyph unicode="6" d="M63 623q0 213 71 388t213 278.5t351 103.5q129 0 240 -51.5t111 -149.5q0 -68 -54 -109q-47 41 -115.5 61.5t-136.5 20.5q-168 0 -239.5 -100t-75.5 -293q49 68 131 101.5t180 33.5q197 0 292 -130t95 -312q0 -152 -64.5 -267.5t-180 -179t-267.5 -63.5q-182 0 -306 86 t-184.5 237.5t-60.5 344.5zM434 432q4 -137 44 -233.5t136 -96.5q98 0 139.5 97.5t41.5 232.5q0 125 -43 219t-138 94q-168 0 -180 -313z" />
<glyph unicode="7" d="M78 1096l6 256h1044l15 -150l-553 -1249l-371 49l592 1114z" />
<glyph unicode="8" d="M72 340q0 111 79.5 200t204.5 148q-111 74 -175 160t-64 192q0 178 136 265.5t345 87.5q193 0 321 -80t128 -242q0 -104 -72 -189t-182 -139q152 -84 238.5 -175t86.5 -222q0 -199 -148.5 -295t-377.5 -96q-225 0 -372.5 95t-147.5 290zM391 332q0 -102 52.5 -166 t148.5 -64q88 0 134 50.5t46 142.5q0 82 -69.5 146.5t-213.5 154.5q-45 -53 -71.5 -125t-26.5 -139zM449 1081q0 -69 55 -129.5t155 -124.5q47 45 72 111t25 133q0 78 -41 126t-117 48q-72 0 -110.5 -44t-38.5 -120z" />
<glyph unicode="9" d="M55 883q0 152 63.5 267.5t180.5 179t268 63.5q183 0 306.5 -86t184 -237.5t60.5 -344.5q0 -213 -70.5 -388t-213 -278.5t-351.5 -103.5q-78 0 -159.5 21.5t-136 66.5t-54.5 113t53 108q47 -41 116 -61.5t136 -20.5q170 0 241 100.5t75 292.5q-51 -68 -132 -101.5 t-180 -33.5q-197 0 -292 130t-95 313zM387 915q0 -129 41 -221t139 -92q100 0 140.5 90t40.5 223q0 135 -41 232.5t-140 97.5q-98 0 -139 -97t-41 -233z" />
<glyph unicode=":" horiz-adv-x="520" d="M72 0zM72 102q0 72 54 112t138 40q82 0 132 -39t50 -109q0 -72 -53 -109.5t-137 -37.5q-82 0 -133 37t-51 106zM72 933q0 72 54 112t138 40q82 0 132 -39t50 -109q0 -72 -53 -109.5t-137 -37.5q-82 0 -133 37t-51 106z" />
<glyph unicode=";" horiz-adv-x="532" d="M81 -250q86 127 87 268q0 102 -50 193q23 14 61 23.5t75 9.5q96 0 147 -52.5t51 -150.5q0 -78 -39 -147.5t-105.5 -112.5t-142.5 -43q-45 0 -84 12zM82 0zM84 933q0 72 54 112t138 40q82 0 132 -39t50 -109q0 -72 -53 -109.5t-137 -37.5q-82 0 -133 37t-51 106z" />
<glyph unicode="&#x3c;" d="M190 524l510 391q10 8 38 29t53.5 32t52.5 11q53 0 87 -31.5t42 -89.5l-418 -327l340 -248q61 -47 61 -115q0 -59 -37.5 -94t-97.5 -35z" />
<glyph unicode="=" d="M166 276q0 51 29.5 79t83.5 28h725q20 -45 20 -80q0 -51 -29.5 -79.5t-83.5 -28.5h-725q-20 48 -20 81zM166 623q0 51 29.5 78.5t83.5 27.5h725q20 -45 20 -80q0 -53 -29.5 -80.5t-83.5 -27.5h-725q-20 49 -20 82z" />
<glyph unicode="&#x3e;" d="M217 170l428 336l-350 248q-29 23 -45.5 53.5t-16.5 62.5q0 55 38 86t98 31l630 -475l-507 -391q-6 -6 -35 -28.5t-56.5 -34t-52.5 -11.5q-53 0 -88 32t-43 91z" />
<glyph unicode="?" horiz-adv-x="944" d="M4 1147q0 133 131 189.5t314 56.5q456 -1 456 -308q0 -80 -33.5 -147.5t-83 -117.5t-126.5 -118q-98 -84 -145.5 -142t-47.5 -130q-10 -8 -35.5 -13t-48.5 -5q-55 0 -86 33.5t-31 93.5q0 55 34 107t106 134q84 94 129 167t45 159q0 74 -34 119t-106 45q-70 0 -106.5 -46 t-36.5 -124q0 -55 16 -117q-37 -18 -98 -18q-96 0 -154.5 46t-58.5 136zM195 102q0 72 54 112t138 40q82 0 132 -39t50 -109q0 -72 -53 -109.5t-137 -37.5q-82 0 -133 37t-51 106z" />
<glyph unicode="@" horiz-adv-x="1665" d="M74 508q0 211 92 375t264 256t404 92q221 0 392 -73t269 -218t98 -354q0 -213 -95 -337t-290 -124q-182 0 -239 119q-27 -55 -83.5 -84t-133.5 -29q-115 0 -193 57.5t-78 161.5q0 137 123 186.5t314 49.5v121q0 66 -16.5 99.5t-67.5 33.5t-73 -28t-22 -83q0 -27 9 -72 q-16 -14 -76 -14q-66 0 -108 28.5t-42 84.5q0 90 99.5 133t228.5 43q162 0 236.5 -60.5t74.5 -212.5v-333q0 -49 16.5 -77t61.5 -28q88 0 121 82t33 232q0 565 -559 565q-268 0 -413 -158t-145 -434q0 -279 142.5 -423t421.5 -144q109 0 196.5 18t149.5 72q35 -23 35 -70 q0 -80 -119 -121t-271 -41q-225 0 -397 84t-266 244t-94 381zM729 356q0 -49 22.5 -78.5t67.5 -29.5q49 0 74 40t25 99v109q-189 -1 -189 -140z" />
<glyph unicode="A" horiz-adv-x="1120" d="M-8 0l373 1352h407l346 -1352h-346l-78 334h-379l-75 -334h-248zM354 496h303l-153 655z" />
<glyph unicode="B" horiz-adv-x="1191" d="M113 8v1331q262 23 454 23q223 0 351.5 -69.5t128.5 -252.5q0 -92 -57.5 -167.5t-147.5 -112.5q147 -29 228 -123t81 -242q0 -141 -83 -234t-217 -137t-292 -44q-211 0 -446 28zM453 139q55 -12 110 -12q121 0 183.5 67.5t62.5 194.5q0 139 -68.5 200.5t-214.5 61.5 q-33 0 -73 -4v-508zM453 795q34 -7 79 -7q213 0 213 232q0 192 -184 192h-2q-51 0 -106 -10v-407z" />
<glyph unicode="C" horiz-adv-x="1126" d="M55 668q0 338 147.5 531.5t454.5 193.5q186 0 307 -68t121 -219q0 -90 -58 -145.5t-148 -55.5q-68 0 -107 23q14 66 14 108q0 209 -151 209q-133 0 -174 -154.5t-41 -375.5q0 -238 62.5 -377t230.5 -139q100 0 171.5 51t112.5 147q80 -39 80 -135q0 -98 -63.5 -167.5 t-162.5 -104.5t-208 -35q-305 0 -446.5 194.5t-141.5 518.5z" />
<glyph unicode="D" horiz-adv-x="1257" d="M113 8v1331q262 23 483 23q311 0 458.5 -168t147.5 -494q0 -346 -158.5 -533t-484.5 -187q-211 0 -446 28zM453 141q57 -14 120 -14q162 0 215.5 149.5t53.5 405.5q0 233 -52.5 381.5t-199.5 148.5q-63 0 -137 -12v-1059z" />
<glyph unicode="E" horiz-adv-x="915" d="M113 0v1352h743v-162h-403v-414h342v-164h-342v-450h432l-15 -162h-757z" />
<glyph unicode="F" horiz-adv-x="878" d="M113 0v1352h743v-162h-403v-442h342v-164h-342v-584h-340z" />
<glyph unicode="G" horiz-adv-x="1183" d="M55 668q0 342 153.5 533.5t471.5 191.5q195 0 319.5 -65.5t124.5 -221.5q0 -90 -59 -145.5t-150 -55.5q-63 0 -106 23q14 51 14 108q0 94 -41 151.5t-127 57.5q-235 0 -235 -530q0 -248 55 -399.5t221 -151.5q80 0 142 22l-13 435l273 28v-610q-94 -43 -211 -63.5 t-232 -20.5q-311 0 -455.5 193.5t-144.5 519.5z" />
<glyph unicode="H" horiz-adv-x="1282" d="M113 0v1352h340v-586h378v586h338v-1352h-338v602h-378v-602h-340z" />
<glyph unicode="I" horiz-adv-x="563" d="M113 0v1352h340v-1352h-340z" />
<glyph unicode="J" horiz-adv-x="563" d="M-80 -254q121 6 157 102.5t36 264.5v1239h340v-1174q0 -241 -71 -389.5t-259 -148.5q-72 0 -130.5 25.5t-72.5 80.5z" />
<glyph unicode="K" horiz-adv-x="1167" d="M113 0v1352h340v-1352h-340zM494 684l337 668h343l-357 -629l385 -723h-356z" />
<glyph unicode="L" horiz-adv-x="868" d="M113 0v1352h340v-1184h405l-16 -168h-729z" />
<glyph unicode="M" horiz-adv-x="1634" d="M113 0v1352h462l248 -863l246 863h453v-1352h-340v1087l-330 -1087h-197l-329 1090v-1090h-213z" />
<glyph unicode="N" horiz-adv-x="1265" d="M113 0v1352h348l481 -965v965h211v-1352h-346l-481 965v-965h-213z" />
<glyph unicode="O" horiz-adv-x="1282" d="M55 668q0 334 142.5 529.5t443.5 195.5q303 0 444.5 -184.5t141.5 -514.5q0 -338 -142.5 -538.5t-443.5 -200.5q-297 0 -441.5 192.5t-144.5 520.5zM420 682q0 -252 42 -416t179 -164t178 163t41 417q0 244 -42 403.5t-177 159.5t-178 -160.5t-43 -402.5z" />
<glyph unicode="P" horiz-adv-x="1140" d="M113 0v1337q264 25 454 25q256 0 402.5 -91t146.5 -310q0 -183 -110.5 -294.5t-290.5 -111.5q-84 0 -139.5 29.5t-55.5 95.5q135 0 195.5 66.5t60.5 207.5q0 258 -217 258q-51 0 -106 -10v-1202h-340z" />
<glyph unicode="Q" horiz-adv-x="1282" d="M55 668q0 334 142.5 529.5t443.5 195.5q303 0 444.5 -184.5t141.5 -514.5q0 -213 -67.5 -380t-200 -263t-318.5 -96q217 -53 363 -53q57 0 100 11t80 46q25 -41 38 -75t13 -70q0 -80 -49 -117t-131 -37q-72 0 -141.5 18.5t-178.5 57.5q-100 37 -166.5 54t-132.5 17 q-94 0 -139 -20q-16 16 -25.5 39.5t-9.5 48.5q0 63 44 87t126 26q-193 59 -285 237t-92 443zM420 682q0 -252 42 -416t179 -164t178 163t41 417q0 244 -42 403.5t-177 159.5t-178 -160.5t-43 -402.5z" />
<glyph unicode="R" horiz-adv-x="1181" d="M113 0v1337q264 25 454 25q254 0 395.5 -89t141.5 -306q0 -140 -66.5 -238t-183.5 -139l340 -590h-354l-303 629q-14 37 -15 61q131 0 187.5 66.5t56.5 201.5q0 254 -207 254q-51 0 -106 -10v-1202h-340z" />
<glyph unicode="S" horiz-adv-x="1050" d="M35 242q0 90 58.5 145t148.5 55q68 0 106 -22q-14 -63 -14 -109q0 -213 176 -213q82 0 133 46t51 124q0 70 -36.5 124t-92 94t-147.5 96q-111 66 -179.5 117t-116.5 128.5t-48 184.5q0 121 65.5 207t175 130t238.5 44q178 0 301 -63.5t123 -207.5q0 -90 -57.5 -139 t-149.5 -49q-63 0 -106 22q14 51 14 119q0 82 -36 128t-114 46q-68 0 -107.5 -36.5t-39.5 -104.5q0 -70 37 -124t91 -93t148 -94q111 -66 179.5 -117t116.5 -129t48 -186q0 -203 -143 -306.5t-373 -103.5q-190 0 -320 67.5t-130 219.5z" />
<glyph unicode="T" horiz-adv-x="929" d="M-8 1190v162h950l-14 -162h-293v-1190h-340v1190h-303z" />
<glyph unicode="U" horiz-adv-x="1185" d="M98 494v858h340v-836q0 -137 12.5 -221t55.5 -133t127 -49q86 0 128 52t54 140t12 234v813h258v-791q0 -205 -42 -337t-147 -200.5t-292 -68.5q-272 0 -389 129t-117 410z" />
<glyph unicode="V" horiz-adv-x="1089" d="M-2 1352h346l248 -1151l242 1151h274l-367 -1352h-415z" />
<glyph unicode="W" horiz-adv-x="1802" d="M-2 1352h346l234 -1151l229 1151h278l232 -1151l229 1151h277l-355 -1352h-415l-166 821l-160 -821h-416z" />
<glyph unicode="X" horiz-adv-x="1071" d="M-14 0l379 694l-351 658h357l225 -451l197 451h284l-362 -662l368 -690h-356l-246 483l-211 -483h-284z" />
<glyph unicode="Y" horiz-adv-x="1081" d="M2 1352h356l226 -545l204 545h285l-371 -734v-618h-340v596z" />
<glyph unicode="Z" horiz-adv-x="921" d="M12 154l523 1030h-484l6 168h828l14 -154l-524 -1030h545l-17 -168h-876z" />
<glyph unicode="[" horiz-adv-x="657" d="M158 -389v2009h530q14 -28 14 -61q0 -76 -88 -76h-180v-1735h180q88 0 88 -76q0 -33 -14 -61h-530z" />
<glyph unicode="\" horiz-adv-x="684" d="M63 1524q0 61 42 87.5t110 26.5q43 0 80 -8l317 -1847q8 -49 9 -80q0 -113 -152 -113q-51 0 -80 7l-317 1849q-8 45 -9 78z" />
<glyph unicode="]" horiz-adv-x="657" d="M-45 -328q0 76 88 76h180v1735h-180q-88 0 -88 76q0 33 14 61h531v-2009h-531q-14 29 -14 61z" />
<glyph unicode="^" horiz-adv-x="1032" d="M14 688q139 78 240.5 255t161.5 409h243q56 -246 143 -407t216 -257q-33 -102 -148 -102q-117 0 -210 120.5t-166 387.5q-98 -270 -182.5 -389t-168.5 -119q-96 0 -129 102z" />
<glyph unicode="_" horiz-adv-x="1038" d="M14 -207q0 61 36 91t102 30h860q12 -27 12 -76q0 -61 -36 -91t-101 -30h-860q-13 27 -13 76z" />
<glyph unicode="`" horiz-adv-x="544" d="M20 1432q0 43 30 80.5t75 54.5l399 -310l-47 -83l-256 90q-94 35 -147.5 70.5t-53.5 97.5z" />
<glyph unicode="a" horiz-adv-x="1105" d="M53 264q0 193 178.5 262.5t448.5 69.5v178q0 96 -26.5 147.5t-104.5 51.5q-74 0 -115 -44t-41 -120q0 -33 13 -98q-14 -10 -43 -15.5t-54 -5.5q-84 0 -139 40t-55 116q0 117 132 178t316 61q221 0 325.5 -88t104.5 -297v-495q0 -57 14.5 -100.5t49.5 -75.5 q-23 -29 -67 -44.5t-89 -15.5q-76 0 -127 32t-69 91q-37 -72 -111 -104.5t-166 -32.5q-158 0 -266.5 82t-108.5 227zM377 272q0 -78 38 -127t109 -49q80 0 118 65.5t38 160.5v172q-303 0 -303 -222z" />
<glyph unicode="b" horiz-adv-x="1150" d="M127 59v1375l313 32v-237q0 -209 -20 -297q43 76 118.5 114.5t168.5 38.5q203 0 293 -152.5t90 -395.5q0 -270 -130.5 -426t-384.5 -156q-109 0 -233.5 28.5t-214.5 75.5zM440 127q66 -49 148 -49q111 0 143.5 125t32.5 323q0 180 -32 292t-132 112t-130 -92.5 t-30 -243.5v-467z" />
<glyph unicode="c" horiz-adv-x="974" d="M61 514q0 266 133.5 418.5t389.5 152.5q156 0 257 -58t101 -187q0 -78 -55.5 -117t-141.5 -39q-25 0 -52 5t-42 16q12 61 13 96q0 162 -111 162q-168 -1 -168 -433q0 -172 47 -272t178 -100q86 0 146.5 45t89.5 127q35 -12 53.5 -40t18.5 -65q0 -86 -51.5 -146.5 t-133.5 -92t-174 -31.5q-246 0 -372 149.5t-126 409.5z" />
<glyph unicode="d" horiz-adv-x="1155" d="M61 526q0 264 127 411.5t381 147.5q84 0 142 -16v365l313 32v-1261q0 -58 14.5 -101t48.5 -75q-23 -29 -66.5 -44.5t-88.5 -15.5q-76 0 -127 32t-70 91q-39 -70 -111.5 -103.5t-162.5 -33.5q-211 0 -305.5 158.5t-94.5 412.5zM389 537q0 -186 34 -310.5t138 -124.5 q76 0 113 65.5t37 160.5v585q-70 50 -148 50q-109 0 -141.5 -118t-32.5 -308z" />
<glyph unicode="e" horiz-adv-x="1019" d="M61 514q0 268 136.5 419.5t394.5 151.5q166 0 274.5 -75.5t108.5 -223.5q0 -182 -129 -251.5t-352 -69.5q-70 0 -109 6q6 -145 56.5 -229t168.5 -84q88 0 161 42t112 119q53 -24 53 -100q0 -84 -55.5 -143.5t-142.5 -90t-179 -30.5q-246 0 -372 149.5t-126 409.5z M385 565h41h10q122 -1 186 47q66 50 66 168q0 78 -31.5 131.5t-95.5 53.5q-98 0 -136 -120t-40 -280z" />
<glyph unicode="f" horiz-adv-x="686" d="M6 952v92h141l7 105q10 172 126.5 249t311.5 77q143 0 249.5 -40t106.5 -141q0 -72 -55 -108.5t-139 -36.5q-68 0 -97 20q12 53 13 97q0 53 -22.5 83.5t-69.5 30.5q-74 0 -96.5 -59t-22.5 -162v-115h203v-92h-201v-952l-314 -29v981h-141z" />
<glyph unicode="g" horiz-adv-x="1142" d="M66 592q0 240 124.5 366.5t362.5 126.5q125 0 227 -41l240 33v-870q0 -209 -43 -343t-151.5 -204t-301.5 -70q-156 0 -276.5 60.5t-120.5 183.5q0 78 54.5 117t140.5 39q72 0 96 -21q-12 -61 -12 -96q0 -76 32.5 -120t102.5 -44q84 0 122.5 60.5t48 149.5t9.5 239v63 q-43 -57 -113.5 -83.5t-154.5 -26.5q-199 0 -293 130t-94 351zM391 604q0 -152 33 -250t133 -98q78 0 114 66.5t36 164.5v428q-66 48 -148 48q-102 0 -135 -100.5t-33 -258.5z" />
<glyph unicode="h" horiz-adv-x="1159" d="M127 0v1434l313 32v-237q0 -209 -20 -297q47 78 124 115.5t173 37.5q178 0 254 -95t76 -290v-495q0 -57 14 -100.5t49 -75.5q-23 -29 -69 -44.5t-91 -15.5q-106 0 -161.5 54.5t-55.5 160.5v500q0 119 -23.5 182.5t-105.5 63.5q-100 0 -132 -92.5t-32 -243.5v-594h-313z " />
<glyph unicode="i" horiz-adv-x="552" d="M86 1356q0 72 54.5 111.5t138.5 39.5q83 0 133.5 -38.5t50.5 -108.5q0 -72 -53.5 -110t-137.5 -38q-82 0 -134 38t-52 106zM113 184v860h313v-839q0 -57 14.5 -100.5t48.5 -75.5q-23 -29 -68.5 -44.5t-90.5 -15.5q-106 0 -161.5 54.5t-55.5 160.5z" />
<glyph unicode="j" horiz-adv-x="563" d="M-57 -313q111 6 147.5 97t36.5 245v1015h313v-960q0 -221 -67.5 -357.5t-241.5 -136.5q-68 0 -122 22.5t-66 74.5zM96 1356q0 72 54.5 111.5t138.5 39.5t134 -38.5t50 -108.5q0 -72 -53 -110t-137 -38q-82 0 -134.5 38t-52.5 106z" />
<glyph unicode="k" horiz-adv-x="1075" d="M127 0v1434l313 32v-1466h-313zM469 575l315 469h291l-319 -421l329 -623h-348z" />
<glyph unicode="l" horiz-adv-x="561" d="M117 184v1250l313 32v-1261q0 -57 14.5 -100.5t49.5 -75.5q-23 -29 -69 -44.5t-91 -15.5q-106 0 -161.5 54.5t-55.5 160.5z" />
<glyph unicode="m" horiz-adv-x="1738" d="M115 0v1044l256 25l14 -184q78 200 320 200h2q119 0 190.5 -44t106.5 -132q82 176 299 176q176 0 249.5 -96t73.5 -289v-495q0 -57 14.5 -100.5t49.5 -75.5q-23 -29 -69 -44.5t-91 -15.5q-106 0 -161.5 54.5t-55.5 160.5v500q0 119 -22.5 182.5t-102.5 63.5 q-94 0 -124 -94.5t-30 -241.5v-594h-313v684q0 121 -22.5 183.5t-106.5 62.5q-100 0 -132 -92.5t-32 -243.5v-594h-313z" />
<glyph unicode="n" horiz-adv-x="1148" d="M115 0v1044l256 25l14 -184q78 200 320 200h2q178 0 252.5 -96t74.5 -289v-495q0 -57 14.5 -100.5t49.5 -75.5q-23 -29 -69 -44.5t-91 -15.5q-106 0 -161.5 54.5t-55.5 160.5v500q0 121 -22.5 183.5t-106.5 62.5q-100 0 -132 -92.5t-32 -243.5v-594h-313z" />
<glyph unicode="o" horiz-adv-x="1112" d="M61 516q0 262 126 415.5t370 153.5q246 0 370 -145t124 -403q0 -266 -125 -424t-369 -158q-242 0 -369 151.5t-127 409.5zM389 526q0 -199 31 -323.5t137 -124.5q107 0 137.5 125t30.5 323q0 188 -33 312.5t-135 124.5t-135 -125t-33 -312z" />
<glyph unicode="p" horiz-adv-x="1150" d="M127 -395v1439l256 25l12 -184q82 200 320 200h2q201 0 287 -152.5t86 -395.5q0 -270 -130.5 -426t-386.5 -156q-76 0 -133 16v-340zM440 127q70 -49 146 -49q111 0 143.5 125t32.5 323q0 184 -30 294t-132 110q-92 0 -126 -81t-34 -208v-514z" />
<glyph unicode="q" horiz-adv-x="1144" d="M61 514q0 264 125 417.5t373 153.5q123 0 225 -41l242 33v-1446l-313 -32v213q0 186 20 274q-43 -66 -115.5 -98.5t-158.5 -32.5q-211 0 -304.5 154.5t-93.5 404.5zM389 524q0 -182 35 -302t139 -120q150 0 150 258v551q-70 52 -150 52q-109 0 -141.5 -122t-32.5 -317z " />
<glyph unicode="r" horiz-adv-x="905" d="M115 0v1044l256 25l14 -184q33 94 106.5 147t174.5 53q117 0 185.5 -66.5t68.5 -180.5q0 -96 -51.5 -147.5t-145.5 -51.5q-23 0 -53.5 6t-44.5 17q14 45 14 106q0 150 -96 150q-74 0 -94.5 -91.5t-20.5 -234.5v-592h-313z" />
<glyph unicode="s" horiz-adv-x="950" d="M59 178q0 78 54.5 117t140.5 39q68 0 96 -21q-12 -45 -12 -96q0 -70 32.5 -109.5t96.5 -39.5q66 0 100.5 37.5t34.5 105.5q0 78 -57.5 129t-171.5 113q-92 49 -148.5 88t-95.5 98t-39 141q0 154 123 229.5t303 75.5q150 0 260.5 -49t110.5 -162q0 -74 -56.5 -113.5 t-140.5 -39.5q-25 0 -52.5 4t-41.5 14q12 53 12 99q0 61 -29.5 98t-84.5 37q-54 0 -85.5 -31t-31.5 -82q0 -78 57.5 -129t173.5 -113q92 -51 147.5 -88.5t94.5 -96t39 -140.5q0 -170 -123 -254t-317 -84q-160 0 -275 51t-115 172z" />
<glyph unicode="t" horiz-adv-x="636" d="M10 952v64q98 37 198.5 102.5t166.5 138.5h88v-213h188v-92h-190v-729q0 -63 23.5 -97t76.5 -44q-20 -53 -75.5 -83t-123.5 -30q-106 0 -160.5 57.5t-54.5 166.5v759h-137z" />
<glyph unicode="u" horiz-adv-x="1163" d="M113 483v561h317v-550q0 -129 7 -208t39 -131.5t99 -52.5q78 0 114 65.5t36 164.5v712h313v-839q0 -57 14.5 -100.5t49.5 -75.5q-25 -29 -69 -44.5t-89 -15.5q-74 0 -125 32t-69 91q-41 -70 -114 -103.5t-163 -33.5q-150 0 -228.5 63.5t-105 176t-26.5 288.5z" />
<glyph unicode="v" horiz-adv-x="995" d="M10 1044h328l190 -894l191 894h287l-318 -1044h-395z" />
<glyph unicode="w" horiz-adv-x="1540" d="M10 1044h328l164 -894l166 894h276l166 -894l164 894h276l-293 -1044h-362l-137 606l-127 -606h-365z" />
<glyph unicode="x" horiz-adv-x="954" d="M-2 0l319 535l-292 509h348l159 -315l121 315h289l-301 -505l313 -539h-348l-176 350l-143 -350h-289z" />
<glyph unicode="y" horiz-adv-x="978" d="M18 1044h328l176 -786l191 786h270l-485 -1439l-314 26l222 480h-127z" />
<glyph unicode="z" horiz-adv-x="831" d="M10 123l434 764l-403 -27l18 184h725l15 -120l-437 -768l445 22l-16 -178h-766z" />
<glyph unicode="{" horiz-adv-x="731" d="M59 567l2 133q88 0 130 54.5t42 163.5v466q0 139 63.5 196.5t221.5 57.5q97 0 189 -16v-104h-56q-82 0 -113.5 -49.5t-31.5 -153.5v-445q0 -104 -43 -159.5t-144 -67.5q78 -10 118 -41t52.5 -79t12.5 -124v-428q0 -109 29.5 -183.5t113.5 -74.5h55l-4 -106 q-106 -16 -186 -17q-150 0 -215.5 67t-65.5 206v479q0 225 -170 225z" />
<glyph unicode="|" horiz-adv-x="579" d="M162 -410h256v2048h-256v-2048z" />
<glyph unicode="}" horiz-adv-x="784" d="M25 1518h55q82 0 113.5 -49.5t31.5 -153.5v-445q0 -104 43 -159.5t144 -67.5q-78 -10 -118 -41t-52.5 -79t-12.5 -124v-428q0 -109 -29.5 -183.5t-113.5 -74.5h-55l4 -106q106 -16 186 -17q150 0 215.5 67t65.5 206v479q0 225 170 225l-2 133q-88 0 -130 54.5t-42 163.5 v466q0 139 -63.5 196.5t-221.5 57.5q-96 0 -188 -16v-104z" />
<glyph unicode="~" d="M180 481q0 -31 16.5 -63.5t43.5 -55.5q16 27 56 40.5t85 13.5q35 0 89 -10.5t108 -22.5q168 -41 247 -41q82 0 133.5 28.5t51.5 88.5q0 31 -16.5 63.5t-43.5 55.5q-16 -27 -56 -40.5t-85 -13.5q-35 0 -89 10.5t-108 22.5q-168 41 -247 41q-82 0 -133.5 -28.5t-51.5 -88.5 z" />
<glyph unicode="&#xa1;" horiz-adv-x="509" d="M68 934q0 72 54 111.5t138 39.5q82 0 132 -38.5t50 -108.5q0 -72 -53 -109.5t-137 -37.5q-82 0 -133 36.5t-51 106.5zM98 -174q0 88 17 248l47 559q29 23 82 22q71 0 94.5 -36.5t30.5 -124.5l43 -789q-25 -25 -68 -40t-84 -15q-162 0 -162 176z" />
<glyph unicode="&#xa2;" d="M154 645q0 233 104 371.5t291 181.5v86q0 57 26.5 91t79.5 34q43 0 84 -23v-169q141 -2 242.5 -58.5t101.5 -187.5q0 -76 -55 -116t-139 -40q-23 0 -51.5 5t-44.5 16q12 66 12 98q0 162 -111 162q-219 0 -219 -434q0 -170 58.5 -271.5t218.5 -101.5q86 0 146 46t89 128 q72 -25 72 -107q0 -119 -95.5 -189.5t-220.5 -78.5v-65q0 -123 -104 -123q-45 0 -86 20v180q-186 41 -292.5 177.5t-106.5 367.5z" />
<glyph unicode="&#xa3;" d="M80 735q0 88 98 88h64v193q0 176 121.5 256t322.5 80q178 0 298 -56.5t120 -193.5q0 -90 -58.5 -139.5t-150.5 -49.5q-70 0 -107 23q14 51 15 119q0 90 -29 141t-102 51q-74 0 -95.5 -56t-21.5 -165v-203h319q10 -27 11 -55q0 -86 -101 -86h-229v-156q0 -114 -39 -189 t-125 -114l666 15l-19 -238h-915l-19 168q84 33 111 101.5t27 197.5v215h-152q-10 25 -10 53z" />
<glyph unicode="&#xa4;" d="M88 1038l109 138l196 -185q84 49 197 49q102 0 184 -41l182 181l123 -129l-180 -162q59 -84 59 -203q0 -104 -49 -190l176 -156l-124 -133l-177 174q-82 -45 -194 -45q-102 0 -180 37l-164 -174l-135 131l163 159q-53 82 -53 197q0 111 53 193zM424 688q0 -82 43 -133 t123 -51q78 0 122 51t44 133q0 84 -45 135t-121 51t-121 -51t-45 -135z" />
<glyph unicode="&#xa5;" d="M59 1352h357l227 -545l203 545h284l-339 -680h213q10 -27 10 -56q0 -86 -101 -86h-151v-133h242q10 -27 10 -55q0 -86 -101 -86h-151v-256h-340v256h-238q-8 18 -8 53q0 88 98 88h148v133h-238q-8 18 -8 54q0 88 98 88h111z" />
<glyph unicode="&#xa6;" horiz-adv-x="581" d="M162 0h256v557h-256v-557zM164 795h256v557h-256v-557z" />
<glyph unicode="&#xa7;" horiz-adv-x="948" d="M70 465q0 113 63.5 201t165.5 143q-78 59 -123 128t-45 159q0 139 115.5 218t279.5 79q137 0 233.5 -51.5t96.5 -163.5q0 -70 -44 -112t-114 -42q-57 0 -84 23q8 49 9 79q0 160 -123 160q-57 0 -90 -31.5t-33 -87.5q0 -74 56 -129t167 -123q92 -57 147.5 -101 t94.5 -108.5t39 -146.5q0 -96 -62.5 -185t-167.5 -159q80 -59 124 -125.5t44 -157.5q0 -141 -115.5 -221t-283.5 -80q-135 0 -231.5 51.5t-96.5 163.5q0 72 44 114t116 42q51 0 84 -22q-8 -33 -8 -80q0 -74 29.5 -118t95.5 -44q57 0 88.5 31.5t31.5 87.5q0 76 -55 129 t-168 125q-90 55 -146.5 99t-95 107.5t-38.5 147.5zM297 569q0 -61 35 -110t83 -85t136 -91q100 76 100 172q0 59 -33.5 107t-79.5 83t-139 94q-102 -66 -102 -170z" />
<glyph unicode="&#xa8;" horiz-adv-x="833" d="M8 1212zM8 1356q0 72 54.5 111.5t138.5 39.5t134 -38.5t50 -108.5q0 -72 -53 -110t-137 -38q-82 0 -134.5 38t-52.5 106zM448 1356q0 72 54.5 111.5t138.5 39.5t134 -38.5t50 -108.5q0 -72 -53 -110t-137 -38q-82 0 -134.5 38t-52.5 106z" />
<glyph unicode="&#xa9;" horiz-adv-x="1587" d="M66 539q0 207 94 371.5t261 257t374 92.5q206 0 373 -92.5t261.5 -257.5t94.5 -371q0 -209 -93.5 -368t-258 -246t-377.5 -87t-378 87t-258 246t-93 368zM268 539q0 -260 136.5 -411t390.5 -151q252 0 388 151t136 411q0 170 -61.5 301t-180.5 205.5t-282 74.5 q-166 0 -285 -74.5t-180.5 -205.5t-61.5 -301zM451 551q0 193 97 300t281 107q113 0 187 -43t74 -137q0 -53 -42 -82.5t-104 -29.5q-49 0 -76 14q10 37 11 70q0 117 -70 116q-113 0 -113 -303q0 -119 34 -188.5t124 -69.5q59 0 102 31t64 86q51 -18 51 -74q0 -92 -75.5 -142 t-180.5 -50q-178 0 -271 104.5t-93 290.5z" />
<glyph unicode="&#xaa;" horiz-adv-x="921" d="M78 793q0 139 123 188t317 49v123q0 68 -16.5 101.5t-69.5 33.5q-51 0 -72.5 -28.5t-21.5 -83.5q0 -25 8 -74q-23 -14 -78 -15q-66 0 -107.5 30t-41.5 85q0 92 99 135t231 43q163 0 240 -61.5t77 -214.5v-348q0 -82 45 -127q-41 -47 -121 -47q-117 0 -141 94 q-25 -53 -78 -79t-121 -26q-117 0 -194.5 58.5t-77.5 163.5zM119 395q0 45 24.5 64.5t71.5 19.5h569q15 -32 15 -67q0 -45 -23.5 -64.5t-73.5 -19.5h-569q-14 43 -14 67zM328 801q0 -49 22.5 -80t67.5 -31q51 0 75.5 40t24.5 99v111q-190 0 -190 -139z" />
<glyph unicode="&#xab;" horiz-adv-x="1036" d="M45 649l258 395h219l-172 -395l168 -391h-217zM483 649l260 395h224l-179 -395l168 -391h-217z" />
<glyph unicode="&#xac;" d="M111 481q0 51 29.5 79t82.5 28h795v-568q-53 -25 -92 -24q-57 0 -89 33.5t-32 93.5v276h-674q-20 37 -20 82z" />
<glyph unicode="&#xad;" horiz-adv-x="800" d="M78 461q0 61 33.5 90t97.5 33l496 20q8 -16 13 -39.5t5 -40.5q0 -115 -133 -121l-494 -20q-8 14 -13 37.5t-5 40.5z" />
<glyph unicode="&#xae;" horiz-adv-x="1587" d="M66 672q0 207 94 371.5t261 257t374 92.5q206 0 373 -92.5t261.5 -257t94.5 -371.5q0 -209 -93.5 -368t-258 -246t-377.5 -87t-378 87t-258 246t-93 368zM268 672q0 -260 136.5 -410.5t390.5 -150.5q252 0 388 150.5t136 410.5q0 170 -61.5 301t-180.5 205.5t-282 74.5 q-166 0 -285 -74.5t-180.5 -205.5t-61.5 -301zM506 311v764q176 12 280 12q154 0 237 -49t83 -176q0 -80 -38 -136t-107 -79l184 -336h-227l-152 357q-8 20 -8 34q70 0 99.5 37t29.5 115q0 145 -111 145q-14 0 -28.5 -2t-24.5 -4v-682h-217z" />
<glyph unicode="&#xaf;" horiz-adv-x="638" d="M20 1339q0 47 30 75t81 28h469q18 -37 18 -80q0 -45 -31.5 -71.5t-86.5 -26.5h-463q-16 29 -17 75z" />
<glyph unicode="&#xb0;" horiz-adv-x="743" d="M29 1083q0 147 95 232.5t247 85.5q154 0 249 -85t95 -233q0 -145 -97.5 -235t-246.5 -90q-97 0 -174.5 41t-122.5 114.5t-45 169.5zM225 1083q0 -88 35 -145t111 -57q75 0 111 56t36 146q0 84 -37 139.5t-110 55.5q-72 0 -109 -55.5t-37 -139.5z" />
<glyph unicode="&#xb1;" d="M213 598q0 53 29.5 81t83.5 28h166v143q0 59 30.5 91t87.5 32q55 0 90 -21v-245h256q20 -37 21 -82q0 -51 -29.5 -79t-83.5 -28h-164v-133q0 -57 -31.5 -90t-88.5 -33q-53 0 -88 21v235h-259q-20 37 -20 80zM229 92q0 104 111 105h598q18 -41 18 -78q0 -104 -110 -105 h-598q-18 41 -19 78z" />
<glyph unicode="&#xb2;" horiz-adv-x="735" d="M80 1204q0 86 82 131t188 45q131 0 209 -58t78 -175q0 -88 -54.5 -160t-189.5 -192q-51 -41 -69 -56l319 6l-4 -161h-549l-8 104l151 150q78 76 120 140t42 136q0 53 -28.5 82t-81.5 29q-111 0 -158 -105q-23 10 -35 33t-12 51z" />
<glyph unicode="&#xb3;" horiz-adv-x="729" d="M76 721q0 57 33 76q29 -43 73.5 -64.5t98.5 -21.5q53 0 85.5 27.5t32.5 78.5q0 53 -32.5 81t-92.5 28q-39 0 -59 -4v104q76 0 124 27.5t48 91.5q0 43 -27.5 66.5t-74.5 23.5q-98 0 -148 -107q-45 23 -45 86q0 82 74 123t174 41q115 0 186.5 -45t71.5 -141q0 -70 -37 -118 t-108 -73q88 -14 137 -62t49 -130q0 -121 -89 -186.5t-228 -65.5q-102 0 -174 41t-72 123z" />
<glyph unicode="&#xb4;" horiz-adv-x="544" d="M20 1257l402 310q43 -16 72.5 -54t29.5 -81q0 -63 -53 -99.5t-147 -68.5l-256 -90z" />
<glyph unicode="&#xb5;" horiz-adv-x="1177" d="M127 0zM127 -395v1439l317 33v-583q0 -131 7.5 -209t38 -130.5t98.5 -52.5q80 0 114.5 65.5t34.5 164.5v712h314v-839q0 -58 14 -101t49 -75q-23 -29 -66.5 -44.5t-89.5 -15.5q-76 0 -127 32t-69 91q-41 -68 -112.5 -101.5t-157.5 -33.5q-35 0 -52 2v-328z" />
<glyph unicode="&#xb6;" horiz-adv-x="1380" d="M98 948q0 229 140.5 326.5t400.5 97.5q127 0 227 -20v-1280q0 -225 -82 -353.5t-276 -128.5q-102 0 -171 41t-69 107q0 20 8.5 36.5t22.5 24.5q66 -57 168 -57q106 0 146 70.5t40 201.5v529q-78 -23 -155 -23q-193 0 -296.5 115t-103.5 313zM1026 -31v1383h434 q0 -82 -33.5 -120t-113.5 -38q-51 0 -86 10v-1204z" />
<glyph unicode="&#xb7;" horiz-adv-x="505" d="M66 518q0 72 54 112t138 40q82 0 132 -39t50 -109q0 -72 -53 -109.5t-137 -37.5q-82 0 -133 37t-51 106z" />
<glyph unicode="&#xb8;" horiz-adv-x="530" d="M20 -403q0 43 23 65q53 -61 154 -61q45 0 75.5 22.5t30.5 61.5q0 90 -151 90q-43 0 -84 -6l94 254h110l-59 -148q20 2 57 2q111 0 175.5 -47t64.5 -145q0 -96 -84 -152.5t-199 -56.5q-80 0 -143.5 27.5t-63.5 93.5z" />
<glyph unicode="&#xb9;" horiz-adv-x="698" d="M61 1239q90 27 183.5 68t165.5 86l84 -25v-666h143v-118h-535v118h152v459q-20 -18 -50 -29.5t-57 -11.5q-47 0 -66.5 32t-19.5 87z" />
<glyph unicode="&#xba;" horiz-adv-x="888" d="M80 975q0 190 91 297.5t273 107.5q181 0 272 -101t91 -290q0 -193 -91 -304.5t-272 -111.5q-176 0 -270 109t-94 293zM104 395q0 45 24 64.5t71 19.5h569q14 -33 14 -67q0 -45 -23.5 -64.5t-70.5 -19.5h-569q-15 32 -15 67zM334 981q0 -137 19.5 -222t90.5 -85 q70 0 89.5 85t19.5 222q0 129 -20.5 215t-88.5 86q-70 0 -90 -85t-20 -216z" />
<glyph unicode="&#xbb;" horiz-adv-x="1036" d="M70 1044h223l260 -395l-256 -391h-219l170 391zM514 1044h219l258 -395l-256 -391h-219l170 391z" />
<glyph unicode="&#xbc;" horiz-adv-x="1671" d="M43 1239q88 27 182 68t166 86l84 -25v-666h143v-118h-534v118h152v459q-20 -18 -50 -29.5t-57 -11.5q-47 0 -66.5 32t-19.5 87zM537 -109q0 14 4 36t6 30l373 1509q33 8 65 9q43 0 69.5 -19.5t26.5 -58.5q0 -29 -10 -66l-373 -1509q-29 -8 -63 -8q-45 0 -71.5 19.5 t-26.5 57.5zM934 207q0 29 29 78l311 495h248v-497h116l-10 -138h-106v-145h-242v145h-307q-39 12 -39 62zM1098 283h186v311z" />
<glyph unicode="&#xbd;" horiz-adv-x="1671" d="M61 1239q90 27 183.5 68t165.5 86l84 -25v-666h143v-118h-535v118h152v459q-20 -18 -50 -29.5t-57 -11.5q-47 0 -66.5 32t-19.5 87zM557 -109q0 29 10 66l373 1509q29 8 64 9q43 0 69.5 -19.5t26.5 -58.5q0 -29 -10 -66l-373 -1509q-29 -8 -64 -8q-43 0 -69.5 19.5 t-26.5 57.5zM1016 621q0 86 82 131t188 45q131 0 209 -58.5t78 -175.5q0 -63 -28.5 -116.5t-78 -104.5t-147.5 -141l-62 -45l322 6l-4 -162h-549l-8 104l147 148q78 74 122 140.5t44 137.5q0 53 -29.5 82t-82.5 29t-94.5 -26.5t-61.5 -77.5q-47 20 -47 84z" />
<glyph unicode="&#xbe;" horiz-adv-x="1671" d="M68 721q0 57 32 76q29 -43 74 -64.5t98 -21.5t86 27.5t33 78.5q0 53 -32.5 81t-92.5 28q-39 0 -59 -4v104q76 0 124 27.5t48 91.5q0 43 -27.5 66.5t-75.5 23.5q-98 0 -147 -107q-45 23 -45 86q0 82 73.5 123t174.5 41q114 0 186 -45t72 -141q0 -70 -37 -118t-109 -73 q88 -14 137.5 -62t49.5 -130q0 -121 -89 -186.5t-229 -65.5q-102 0 -173.5 41t-71.5 123zM537 -109q0 14 4 36t6 30l373 1509q33 8 65 9q43 0 69.5 -19.5t26.5 -58.5q0 -29 -10 -66l-373 -1509q-29 -8 -63 -8q-45 0 -71.5 19.5t-26.5 57.5zM934 207q0 29 29 78l311 495h248 v-497h116l-10 -138h-106v-145h-242v145h-307q-39 12 -39 62zM1098 283h186v311z" />
<glyph unicode="&#xbf;" horiz-adv-x="944" d="M23 -39q0 115 63.5 199t181.5 184q96 80 144.5 139.5t48.5 130.5q10 8 34.5 13.5t47.5 5.5q57 0 86.5 -34t29.5 -91q0 -55 -33.5 -107.5t-105.5 -134.5q-86 -98 -130 -169.5t-44 -157.5q0 -74 34 -119t107 -45q68 0 105 47t37 123q0 49 -15 116q39 20 97 21 q96 0 154.5 -46t58.5 -138q0 -133 -130 -189.5t-313 -56.5q-205 0 -331.5 70.5t-126.5 238.5zM346 934q0 72 54.5 111.5t138.5 39.5q82 0 132 -38.5t50 -108.5q0 -72 -53.5 -109.5t-137.5 -37.5q-82 0 -133 36.5t-51 106.5z" />
<glyph unicode="&#xc0;" horiz-adv-x="1120" d="M-8 0l373 1352h407l346 -1352h-346l-78 334h-379l-75 -334h-248zM0 0zM208 1614q0 35 18.5 68.5t49.5 58.5l471 -191l-24 -96l-271 21q-115 8 -179.5 34.5t-64.5 104.5zM354 496h303l-153 655z" />
<glyph unicode="&#xc1;" horiz-adv-x="1120" d="M-8 0l373 1352h407l346 -1352h-346l-78 334h-379l-75 -334h-248zM0 0zM354 496h303l-153 655zM372 1550l472 191q31 -25 49 -58.5t18 -68.5q0 -78 -64.5 -104.5t-179.5 -34.5l-270 -21z" />
<glyph unicode="&#xc2;" horiz-adv-x="1120" d="M-8 0l373 1352h407l346 -1352h-346l-78 334h-379l-75 -334h-248zM0 0zM231 1470l303 254h49l310 -254l-70 -84l-262 127l-260 -127zM354 496h303l-153 655z" />
<glyph unicode="&#xc3;" horiz-adv-x="1120" d="M-8 0l373 1352h407l346 -1352h-346l-78 334h-379l-75 -334h-248zM0 0zM202 1587q0 117 166 117q41 0 106.5 -10.5t86.5 -12.5q127 -23 188 -22q84 0 121 37q23 -23 37 -53.5t14 -61.5q0 -117 -166 -117q-41 0 -107.5 10.5t-86.5 12.5q-127 23 -186 22q-84 0 -121 -34 q-23 20 -37.5 50.5t-14.5 61.5zM354 496h303l-153 655z" />
<glyph unicode="&#xc4;" horiz-adv-x="1120" d="M-8 0l373 1352h407l346 -1352h-346l-78 334h-379l-75 -334h-248zM0 0zM151 1600q0 72 54.5 111.5t138.5 39.5t134 -38.5t50 -108.5q0 -72 -53 -110t-137 -38q-82 0 -134.5 38t-52.5 106zM354 496h303l-153 655zM590 1600q0 72 54.5 111.5t138.5 39.5t134 -38.5t50 -108.5 q0 -72 -53 -110t-137 -38q-82 0 -134.5 38t-52.5 106z" />
<glyph unicode="&#xc5;" horiz-adv-x="1120" d="M-8 0l373 1352h407l346 -1352h-346l-78 334h-379l-75 -334h-248zM0 0zM339 1620q0 86 61.5 133t160.5 47q98 0 159.5 -47t61.5 -133q0 -84 -62.5 -135t-158.5 -51q-97 0 -159.5 51t-62.5 135zM354 496h303l-153 655zM471 1620q0 -49 22.5 -79t67.5 -30t67.5 30t22.5 79 q0 45 -23.5 74.5t-66.5 29.5t-66.5 -29.5t-23.5 -74.5z" />
<glyph unicode="&#xc6;" horiz-adv-x="1443" d="M-59 0l604 1352h839v-162h-370v-414h309v-164h-309v-450h399l-14 -162h-723v334h-342l-137 -334h-256zM401 496h275v675z" />
<glyph unicode="&#xc7;" horiz-adv-x="1126" d="M55 668q0 338 147.5 531.5t454.5 193.5q186 0 307 -68t121 -219q0 -90 -58 -145.5t-148 -55.5q-68 0 -107 23q14 66 14 108q0 209 -151 209q-133 0 -174 -154.5t-41 -375.5q0 -238 62.5 -377t230.5 -139q100 0 171.5 51t112.5 147q80 -39 80 -135q0 -98 -63.5 -167.5 t-162.5 -104.5t-208 -35h-2l-33 -80q20 2 58 2q111 0 175 -47t64 -145q0 -96 -84 -152.5t-198 -56.5q-80 0 -143.5 27.5t-63.5 93.5q0 43 22 65q51 -61 154 -61q45 0 75.5 22.5t30.5 61.5q0 90 -151 90q-43 0 -84 -6l72 194q-250 35 -365 223.5t-115 481.5z" />
<glyph unicode="&#xc8;" horiz-adv-x="915" d="M113 0v1352h743v-162h-403v-414h342v-164h-342v-450h432l-15 -162h-757zM113 0zM131 1614q0 35 18.5 68.5t49.5 58.5l471 -191l-24 -96l-271 21q-115 8 -179.5 34.5t-64.5 104.5z" />
<glyph unicode="&#xc9;" horiz-adv-x="915" d="M113 0v1352h743v-162h-403v-414h342v-164h-342v-450h432l-15 -162h-757zM113 0zM296 1548l472 191q31 -25 49 -58.5t18 -68.5q0 -78 -64.5 -104.5t-179.5 -34.5l-270 -21z" />
<glyph unicode="&#xca;" horiz-adv-x="915" d="M113 0v1352h743v-162h-403v-414h342v-164h-342v-450h432l-15 -162h-757zM113 0zM158 1470l303 254h49l310 -254l-70 -84l-262 127l-260 -127z" />
<glyph unicode="&#xcb;" horiz-adv-x="915" d="M78 0zM78 1600q0 72 54.5 111.5t138.5 39.5t134 -38.5t50 -108.5q0 -72 -53 -110t-137 -38q-82 0 -134.5 38t-52.5 106zM113 0v1352h743v-162h-403v-414h342v-164h-342v-450h432l-15 -162h-757zM516 1600q0 72 54.5 111.5t138.5 39.5t134 -38.5t50 -108.5q0 -72 -53 -110 t-137 -38q-82 0 -134.5 38t-52.5 106z" />
<glyph unicode="&#xcc;" horiz-adv-x="563" d="M-70 1614q0 35 18.5 68.5t49.5 58.5l471 -191l-24 -96l-271 21q-115 8 -179.5 34.5t-64.5 104.5zM0 0zM113 0v1352h340v-1352h-340z" />
<glyph unicode="&#xcd;" horiz-adv-x="563" d="M96 0zM96 1548l472 191q31 -25 49 -58.5t18 -68.5q0 -78 -64.5 -104.5t-179.5 -34.5l-270 -21zM113 0v1352h340v-1352h-340z" />
<glyph unicode="&#xce;" horiz-adv-x="563" d="M-47 1470l303 254h49l310 -254l-70 -84l-262 127l-260 -127zM0 0zM113 0v1352h340v-1352h-340z" />
<glyph unicode="&#xcf;" horiz-adv-x="563" d="M-127 1600q0 72 54.5 111.5t138.5 39.5t134 -38.5t50 -108.5q0 -72 -53 -110t-137 -38q-82 0 -134.5 38t-52.5 106zM0 0zM113 0v1352h340v-1352h-340zM311 1600q0 72 54.5 111.5t138.5 39.5t134 -38.5t50 -108.5q0 -72 -53 -110t-137 -38q-82 0 -134.5 38t-52.5 106z" />
<glyph unicode="&#xd0;" horiz-adv-x="1267" d="M-20 670q0 109 122 108h21v561q262 23 483 23q312 0 459 -168t147 -494q0 -346 -158.5 -533t-484.5 -187q-211 0 -446 28v592h-131q-12 25 -12 70zM463 141q57 -14 121 -14q161 0 214.5 149.5t53.5 405.5q0 233 -52 381.5t-200 148.5q-63 0 -137 -12v-422h229 q12 -31 13 -69q0 -55 -33 -82t-92 -27h-117v-459z" />
<glyph unicode="&#xd1;" horiz-adv-x="1265" d="M113 0v1352h348l481 -965v965h211v-1352h-346l-481 965v-965h-213zM113 0zM272 1587q0 117 166 117q41 0 106.5 -10.5t86.5 -12.5q127 -23 188 -22q84 0 121 37q23 -23 37 -53.5t14 -61.5q0 -117 -166 -117q-41 0 -107.5 10.5t-86.5 12.5q-127 23 -186 22q-84 0 -121 -34 q-23 20 -37.5 50.5t-14.5 61.5z" />
<glyph unicode="&#xd2;" horiz-adv-x="1282" d="M55 0zM55 668q0 334 142.5 529.5t443.5 195.5q303 0 444.5 -184.5t141.5 -514.5q0 -338 -142.5 -538.5t-443.5 -200.5q-297 0 -441.5 192.5t-144.5 520.5zM288 1614q0 35 18.5 68.5t49.5 58.5l471 -191l-24 -96l-271 21q-115 8 -179.5 34.5t-64.5 104.5zM420 682 q0 -252 42 -416t179 -164t178 163t41 417q0 244 -42 403.5t-177 159.5t-178 -160.5t-43 -402.5z" />
<glyph unicode="&#xd3;" horiz-adv-x="1282" d="M55 0zM55 668q0 334 142.5 529.5t443.5 195.5q303 0 444.5 -184.5t141.5 -514.5q0 -338 -142.5 -538.5t-443.5 -200.5q-297 0 -441.5 192.5t-144.5 520.5zM420 682q0 -252 42 -416t179 -164t178 163t41 417q0 244 -42 403.5t-177 159.5t-178 -160.5t-43 -402.5zM454 1548 l472 191q31 -25 49 -58.5t18 -68.5q0 -78 -64.5 -104.5t-179.5 -34.5l-270 -21z" />
<glyph unicode="&#xd4;" horiz-adv-x="1282" d="M55 0zM55 668q0 334 142.5 529.5t443.5 195.5q303 0 444.5 -184.5t141.5 -514.5q0 -338 -142.5 -538.5t-443.5 -200.5q-297 0 -441.5 192.5t-144.5 520.5zM311 1470l303 254h49l310 -254l-70 -84l-262 127l-260 -127zM420 682q0 -252 42 -416t179 -164t178 163t41 417 q0 244 -42 403.5t-177 159.5t-178 -160.5t-43 -402.5z" />
<glyph unicode="&#xd5;" horiz-adv-x="1282" d="M55 0zM55 668q0 334 142.5 529.5t443.5 195.5q303 0 444.5 -184.5t141.5 -514.5q0 -338 -142.5 -538.5t-443.5 -200.5q-297 0 -441.5 192.5t-144.5 520.5zM282 1587q0 117 166 117q41 0 106.5 -10.5t86.5 -12.5q127 -23 188 -22q84 0 121 37q23 -23 37 -53.5t14 -61.5 q0 -117 -166 -117q-41 0 -107.5 10.5t-86.5 12.5q-127 23 -186 22q-84 0 -121 -34q-23 20 -37.5 50.5t-14.5 61.5zM420 682q0 -252 42 -416t179 -164t178 163t41 417q0 244 -42 403.5t-177 159.5t-178 -160.5t-43 -402.5z" />
<glyph unicode="&#xd6;" horiz-adv-x="1282" d="M55 0zM55 668q0 334 142.5 529.5t443.5 195.5q303 0 444.5 -184.5t141.5 -514.5q0 -338 -142.5 -538.5t-443.5 -200.5q-297 0 -441.5 192.5t-144.5 520.5zM231 1600q0 72 54.5 111.5t138.5 39.5t134 -38.5t50 -108.5q0 -72 -53 -110t-137 -38q-82 0 -134.5 38t-52.5 106z M420 682q0 -252 42 -416t179 -164t178 163t41 417q0 244 -42 403.5t-177 159.5t-178 -160.5t-43 -402.5zM670 1600q0 72 54.5 111.5t138.5 39.5t134 -38.5t50 -108.5q0 -72 -53 -110t-137 -38q-82 0 -134.5 38t-52.5 106z" />
<glyph unicode="&#xd7;" d="M164 121l311 375l-186 209q-31 35 -46.5 60.5t-15.5 55.5q0 55 38 86t97 31l240 -291l168 203q57 76 123 76q45 0 74.5 -24.5t36.5 -70.5l-277 -327l221 -242q31 -39 45.5 -63.5t14.5 -53.5q0 -57 -37 -86.5t-97 -29.5l-272 323l-201 -252q-55 -74 -125 -73 q-45 0 -74.5 24.5t-37.5 69.5z" />
<glyph unicode="&#xd8;" horiz-adv-x="1282" d="M55 668q0 334 142.5 529.5t443.5 195.5q186 0 317 -74l103 149q43 -2 85 -25.5t42 -62.5q0 -29 -33 -77l-68 -99q140 -174 140 -510q0 -338 -142.5 -538.5t-443.5 -200.5q-205 0 -342 98l-115 -166q-43 2 -85 24.5t-42 63.5q0 29 33 78l86 127q-121 184 -121 488z M420 682q0 -94 2 -143l389 565q-55 141 -170 141q-135 0 -178 -160.5t-43 -402.5zM457 285q53 -182 184 -183q137 0 178 163t41 417q0 121 -6 182z" />
<glyph unicode="&#xd9;" horiz-adv-x="1185" d="M98 0zM98 494v858h340v-836q0 -137 12.5 -221t55.5 -133t127 -49q86 0 128 52t54 140t12 234v813h258v-791q0 -205 -42 -337t-147 -200.5t-292 -68.5q-272 0 -389 129t-117 410zM280 1614q0 35 18.5 68.5t49.5 58.5l471 -191l-24 -96l-271 21q-115 8 -179.5 34.5 t-64.5 104.5z" />
<glyph unicode="&#xda;" horiz-adv-x="1185" d="M98 0zM98 494v858h340v-836q0 -137 12.5 -221t55.5 -133t127 -49q86 0 128 52t54 140t12 234v813h258v-791q0 -205 -42 -337t-147 -200.5t-292 -68.5q-272 0 -389 129t-117 410zM446 1548l472 191q31 -25 49 -58.5t18 -68.5q0 -78 -64.5 -104.5t-179.5 -34.5l-270 -21z " />
<glyph unicode="&#xdb;" horiz-adv-x="1185" d="M98 0zM98 494v858h340v-836q0 -137 12.5 -221t55.5 -133t127 -49q86 0 128 52t54 140t12 234v813h258v-791q0 -205 -42 -337t-147 -200.5t-292 -68.5q-272 0 -389 129t-117 410zM303 1470l303 254h49l310 -254l-70 -84l-262 127l-260 -127z" />
<glyph unicode="&#xdc;" horiz-adv-x="1185" d="M98 0zM98 494v858h340v-836q0 -137 12.5 -221t55.5 -133t127 -49q86 0 128 52t54 140t12 234v813h258v-791q0 -205 -42 -337t-147 -200.5t-292 -68.5q-272 0 -389 129t-117 410zM223 1600q0 72 54.5 111.5t138.5 39.5t134 -38.5t50 -108.5q0 -72 -53 -110t-137 -38 q-82 0 -134.5 38t-52.5 106zM661 1600q0 72 54.5 111.5t138.5 39.5t134 -38.5t50 -108.5q0 -72 -53 -110t-137 -38q-82 0 -134.5 38t-52.5 106z" />
<glyph unicode="&#xdd;" horiz-adv-x="1081" d="M2 0zM2 1352h356l226 -545l204 545h285l-371 -734v-618h-340v596zM378 1548l472 191q31 -25 49 -58.5t18 -68.5q0 -78 -64.5 -104.5t-179.5 -34.5l-270 -21z" />
<glyph unicode="&#xde;" horiz-adv-x="1140" d="M113 0v1352h340v-252h114q256 0 402.5 -90t146.5 -310q0 -182 -110.5 -293.5t-290.5 -111.5q-84 0 -139.5 29.5t-55.5 95.5q135 0 195.5 66.5t60.5 207.5q0 258 -217 258q-51 0 -106 -10v-942h-340z" />
<glyph unicode="&#xdf;" horiz-adv-x="1394" d="M-57 -252q111 6 147.5 97.5t36.5 244.5v1014q0 371 526 371q176 0 323.5 -53.5t147.5 -174.5q0 -59 -34.5 -105t-104.5 -110q-61 -55 -90 -92t-29 -80q0 -78 57.5 -129t172.5 -113q92 -51 147 -88.5t94 -96t39 -140.5q0 -170 -123 -254t-315 -84q-160 0 -275.5 51 t-115.5 172q0 78 55 117t141 39q68 0 97 -21q-12 -45 -13 -96q0 -70 33 -109.5t96 -39.5q66 0 101 37.5t35 105.5q0 78 -57.5 129t-172.5 113q-92 49 -148.5 88t-95 98t-38.5 141q0 59 36.5 110.5t108.5 119.5q61 57 92 98t31 84q0 84 -58.5 131t-148.5 47 q-113 0 -157 -57.5t-44 -177.5v-992q0 -221 -67.5 -357t-241.5 -136q-68 0 -122 23.5t-66 74.5z" />
<glyph unicode="&#xe0;" horiz-adv-x="1105" d="M53 0zM53 264q0 193 178.5 262.5t448.5 69.5v178q0 96 -26.5 147.5t-104.5 51.5q-74 0 -115 -44t-41 -120q0 -33 13 -98q-14 -10 -43 -15.5t-54 -5.5q-84 0 -139 40t-55 116q0 117 132 178t316 61q221 0 325.5 -88t104.5 -297v-495q0 -57 14.5 -100.5t49.5 -75.5 q-23 -29 -67 -44.5t-89 -15.5q-76 0 -127 32t-69 91q-37 -72 -111 -104.5t-166 -32.5q-158 0 -266.5 82t-108.5 227zM227 1432q0 43 30 80.5t75 54.5l399 -310l-47 -83l-256 90q-94 35 -147.5 70.5t-53.5 97.5zM377 272q0 -78 38 -127t109 -49q80 0 118 65.5t38 160.5v172 q-303 0 -303 -222z" />
<glyph unicode="&#xe1;" horiz-adv-x="1105" d="M53 0zM53 264q0 193 178.5 262.5t448.5 69.5v178q0 96 -26.5 147.5t-104.5 51.5q-74 0 -115 -44t-41 -120q0 -33 13 -98q-14 -10 -43 -15.5t-54 -5.5q-84 0 -139 40t-55 116q0 117 132 178t316 61q221 0 325.5 -88t104.5 -297v-495q0 -57 14.5 -100.5t49.5 -75.5 q-23 -29 -67 -44.5t-89 -15.5q-76 0 -127 32t-69 91q-37 -72 -111 -104.5t-166 -32.5q-158 0 -266.5 82t-108.5 227zM354 1257l402 310q43 -16 72.5 -54t29.5 -81q0 -63 -53 -99.5t-147 -68.5l-256 -90zM377 272q0 -78 38 -127t109 -49q80 0 118 65.5t38 160.5v172 q-303 0 -303 -222z" />
<glyph unicode="&#xe2;" horiz-adv-x="1105" d="M53 0zM53 264q0 193 178.5 262.5t448.5 69.5v178q0 96 -26.5 147.5t-104.5 51.5q-74 0 -115 -44t-41 -120q0 -33 13 -98q-14 -10 -43 -15.5t-54 -5.5q-84 0 -139 40t-55 116q0 117 132 178t316 61q221 0 325.5 -88t104.5 -297v-495q0 -57 14.5 -100.5t49.5 -75.5 q-23 -29 -67 -44.5t-89 -15.5q-76 0 -127 32t-69 91q-37 -72 -111 -104.5t-166 -32.5q-158 0 -266.5 82t-108.5 227zM213 1272l304 254h49l309 -254l-70 -84l-262 127l-260 -127zM377 272q0 -78 38 -127t109 -49q80 0 118 65.5t38 160.5v172q-303 0 -303 -222z" />
<glyph unicode="&#xe3;" horiz-adv-x="1105" d="M53 0zM53 264q0 193 178.5 262.5t448.5 69.5v178q0 96 -26.5 147.5t-104.5 51.5q-74 0 -115 -44t-41 -120q0 -33 13 -98q-14 -10 -43 -15.5t-54 -5.5q-84 0 -139 40t-55 116q0 117 132 178t316 61q221 0 325.5 -88t104.5 -297v-495q0 -57 14.5 -100.5t49.5 -75.5 q-23 -29 -67 -44.5t-89 -15.5q-76 0 -127 32t-69 91q-37 -72 -111 -104.5t-166 -32.5q-158 0 -266.5 82t-108.5 227zM184 1352q0 117 166 116q41 0 106.5 -10t86.5 -12q127 -23 188 -23q84 0 121 37q22 -22 36.5 -53t14.5 -61q0 -117 -166 -117q-41 0 -107.5 10t-86.5 12 q-127 23 -187 23q-84 0 -121 -37q-23 23 -37 53.5t-14 61.5zM377 272q0 -78 38 -127t109 -49q80 0 118 65.5t38 160.5v172q-303 0 -303 -222z" />
<glyph unicode="&#xe4;" horiz-adv-x="1105" d="M53 0zM53 264q0 193 178.5 262.5t448.5 69.5v178q0 96 -26.5 147.5t-104.5 51.5q-74 0 -115 -44t-41 -120q0 -33 13 -98q-14 -10 -43 -15.5t-54 -5.5q-84 0 -139 40t-55 116q0 117 132 178t316 61q221 0 325.5 -88t104.5 -297v-495q0 -57 14.5 -100.5t49.5 -75.5 q-23 -29 -67 -44.5t-89 -15.5q-76 0 -127 32t-69 91q-37 -72 -111 -104.5t-166 -32.5q-158 0 -266.5 82t-108.5 227zM133 1356q0 72 54.5 111.5t138.5 39.5t134 -38.5t50 -108.5q0 -72 -53 -110t-137 -38q-82 0 -134.5 38t-52.5 106zM377 272q0 -78 38 -127t109 -49 q80 0 118 65.5t38 160.5v172q-303 0 -303 -222zM573 1356q0 72 54.5 111.5t138.5 39.5t134 -38.5t50 -108.5q0 -72 -53 -110t-137 -38q-82 0 -134.5 38t-52.5 106z" />
<glyph unicode="&#xe5;" horiz-adv-x="1105" d="M53 0zM53 264q0 193 178.5 262.5t448.5 69.5v178q0 96 -26.5 147.5t-104.5 51.5q-74 0 -115 -44t-41 -120q0 -33 13 -98q-14 -10 -43 -15.5t-54 -5.5q-84 0 -139 40t-55 116q0 117 132 178t316 61q221 0 325.5 -88t104.5 -297v-495q0 -57 14.5 -100.5t49.5 -75.5 q-23 -29 -67 -44.5t-89 -15.5q-76 0 -127 32t-69 91q-37 -72 -111 -104.5t-166 -32.5q-158 0 -266.5 82t-108.5 227zM313 1370q0 90 63.5 141.5t166.5 51.5q100 0 163.5 -50.5t63.5 -142.5q0 -90 -64.5 -144.5t-162.5 -54.5t-164 54.5t-66 144.5zM377 272q0 -78 38 -127 t109 -49q80 0 118 65.5t38 160.5v172q-303 0 -303 -222zM445 1370q0 -55 24.5 -89t73.5 -34t72.5 34t23.5 89q0 51 -24.5 84t-71.5 33q-49 0 -73.5 -33t-24.5 -84z" />
<glyph unicode="&#xe6;" horiz-adv-x="1630" d="M53 264q0 193 176.5 258.5t450.5 65.5v186q0 96 -26.5 147.5t-104.5 51.5q-74 0 -115 -44t-41 -120q0 -33 13 -98q-14 -10 -43 -15.5t-54 -5.5q-84 0 -139 40t-55 116q0 117 132 178t316 61q111 0 188.5 -20.5t131.5 -67.5q125 88 317 88q166 0 274.5 -75.5t108.5 -223.5 q0 -180 -127 -246.5t-352 -66.5q-72 0 -109 6q6 -150 55.5 -235.5t168.5 -85.5q88 0 161.5 42t110.5 119q53 -24 53 -100q0 -84 -55 -143.5t-142 -90t-180 -30.5q-129 0 -225 43t-158 125q-98 -168 -338 -168q-170 0 -281.5 80t-111.5 229zM377 272q0 -78 38 -127t109 -49 q80 0 118 65.5t38 160.5v163q-143 0 -223 -47t-80 -166zM993 573h41q133 -2 197.5 44.5t64.5 162.5q0 78 -30.5 131.5t-96.5 53.5q-96 0 -135 -115t-41 -277z" />
<glyph unicode="&#xe7;" horiz-adv-x="974" d="M61 514q0 266 133.5 418.5t389.5 152.5q156 0 257 -58t101 -187q0 -78 -55.5 -117t-141.5 -39q-25 0 -52 5t-42 16q12 61 13 96q0 162 -111 162q-168 0 -168 -433q0 -172 47 -272t178 -100q86 0 146.5 45t89.5 127q35 -13 53.5 -40.5t18.5 -64.5q0 -86 -51.5 -146.5 t-133.5 -92t-174 -31.5h-12l-33 -80q20 2 57 2q111 0 175.5 -47t64.5 -145q0 -96 -84 -152.5t-199 -56.5q-80 0 -143 27.5t-63 93.5q0 43 22 65q53 -61 154 -61q45 0 75.5 22.5t30.5 61.5q0 90 -151 90q-45 0 -84 -6l73 196q-188 35 -284.5 179.5t-96.5 369.5z" />
<glyph unicode="&#xe8;" horiz-adv-x="1019" d="M61 0zM61 514q0 268 136.5 419.5t394.5 151.5q166 0 274.5 -75.5t108.5 -223.5q0 -182 -129 -251.5t-352 -69.5q-70 0 -109 6q6 -145 56.5 -229t168.5 -84q88 0 161 42t112 119q53 -24 53 -100q0 -84 -55.5 -143.5t-142.5 -90t-179 -30.5q-246 0 -372 149.5t-126 409.5z M243 1432q0 43 30 80.5t75 54.5l399 -310l-47 -83l-256 90q-94 35 -147.5 70.5t-53.5 97.5zM385 565h41q129 -2 195.5 47.5t66.5 167.5q0 78 -31.5 131.5t-95.5 53.5q-98 0 -136 -120t-40 -280z" />
<glyph unicode="&#xe9;" horiz-adv-x="1019" d="M61 0zM61 514q0 268 136.5 419.5t394.5 151.5q166 0 274.5 -75.5t108.5 -223.5q0 -182 -129 -251.5t-352 -69.5q-70 0 -109 6q6 -145 56.5 -229t168.5 -84q88 0 161 42t112 119q53 -24 53 -100q0 -84 -55.5 -143.5t-142.5 -90t-179 -30.5q-246 0 -372 149.5t-126 409.5z M370 1257l402 310q43 -16 72.5 -54t29.5 -81q0 -63 -53 -99.5t-147 -68.5l-256 -90zM385 565h41q129 -2 195.5 47.5t66.5 167.5q0 78 -31.5 131.5t-95.5 53.5q-98 0 -136 -120t-40 -280z" />
<glyph unicode="&#xea;" horiz-adv-x="1019" d="M61 0zM61 514q0 268 136.5 419.5t394.5 151.5q166 0 274.5 -75.5t108.5 -223.5q0 -182 -129 -251.5t-352 -69.5q-70 0 -109 6q6 -145 56.5 -229t168.5 -84q88 0 161 42t112 119q53 -24 53 -100q0 -84 -55.5 -143.5t-142.5 -90t-179 -30.5q-246 0 -372 149.5t-126 409.5z M229 1272l304 254h49l309 -254l-70 -84l-262 127l-260 -127zM385 565h41q129 -2 195.5 47.5t66.5 167.5q0 78 -31.5 131.5t-95.5 53.5q-98 0 -136 -120t-40 -280z" />
<glyph unicode="&#xeb;" horiz-adv-x="1019" d="M61 0zM61 514q0 268 136.5 419.5t394.5 151.5q166 0 274.5 -75.5t108.5 -223.5q0 -182 -129 -251.5t-352 -69.5q-70 0 -109 6q6 -145 56.5 -229t168.5 -84q88 0 161 42t112 119q53 -24 53 -100q0 -84 -55.5 -143.5t-142.5 -90t-179 -30.5q-246 0 -372 149.5t-126 409.5z M149 1356q0 72 54.5 111.5t138.5 39.5t134 -38.5t50 -108.5q0 -72 -53 -110t-137 -38q-82 0 -134.5 38t-52.5 106zM385 565h41q129 -2 195.5 47.5t66.5 167.5q0 78 -31.5 131.5t-95.5 53.5q-98 0 -136 -120t-40 -280zM590 1356q0 72 54.5 111.5t138.5 39.5t134 -38.5 t50 -108.5q0 -72 -53 -110t-137 -38q-82 0 -134.5 38t-52.5 106z" />
<glyph unicode="&#xec;" horiz-adv-x="552" d="M-46 1432q0 43 30 80.5t75 54.5l399 -310l-47 -83l-256 90q-94 35 -147.5 70.5t-53.5 97.5zM0 0zM113 184v860h313v-839q0 -57 14.5 -100.5t48.5 -75.5q-23 -29 -68.5 -44.5t-90.5 -15.5q-106 0 -161.5 54.5t-55.5 160.5z" />
<glyph unicode="&#xed;" horiz-adv-x="552" d="M81 1257l402 310q43 -16 72.5 -54t29.5 -81q0 -63 -53 -99.5t-147 -68.5l-256 -90zM82 0zM113 184v860h313v-839q0 -57 14.5 -100.5t48.5 -75.5q-23 -29 -68.5 -44.5t-90.5 -15.5q-106 0 -161.5 54.5t-55.5 160.5z" />
<glyph unicode="&#xee;" horiz-adv-x="552" d="M-60 1272l304 254h49l309 -254l-70 -84l-262 127l-260 -127zM0 0zM113 184v860h313v-839q0 -57 14.5 -100.5t48.5 -75.5q-23 -29 -68.5 -44.5t-90.5 -15.5q-106 0 -161.5 54.5t-55.5 160.5z" />
<glyph unicode="&#xef;" horiz-adv-x="552" d="M-139 1356q0 72 54.5 111.5t138.5 39.5t134 -38.5t50 -108.5q0 -72 -53 -110t-137 -38q-82 0 -134.5 38t-52.5 106zM0 0zM113 184v860h313v-839q0 -57 14.5 -100.5t48.5 -75.5q-23 -29 -68.5 -44.5t-90.5 -15.5q-106 0 -161.5 54.5t-55.5 160.5zM301 1356 q0 72 54.5 111.5t138.5 39.5t134 -38.5t50 -108.5q0 -72 -53 -110t-137 -38q-82 0 -134.5 38t-52.5 106z" />
<glyph unicode="&#xf0;" horiz-adv-x="1159" d="M61 465q0 180 71 302t188.5 182.5t257.5 60.5q82 0 137 -19q-6 74 -25 135l-172 -63q-10 10 -19.5 26.5t-11.5 28.5q-2 8 -2 21q0 51 64 73l78 29q-57 53 -150 53q-68 0 -110 -30q-10 16 -16.5 40.5t-6.5 47.5q0 63 52.5 93t135.5 30q205 -1 338 -144l174 62 q10 -10 18.5 -26.5t10.5 -29.5q4 -16 4 -22q0 -47 -71 -74l-58 -20q63 -115 93 -263.5t30 -312.5q0 -311 -118.5 -499.5t-385.5 -188.5q-152 0 -266.5 63.5t-177 178t-62.5 266.5zM395 479q0 -158 36 -278.5t136 -120.5q107 0 139.5 143.5t32.5 382.5q0 113 -12 228 q-70 53 -149 53q-115 0 -149 -118t-34 -290z" />
<glyph unicode="&#xf1;" horiz-adv-x="1148" d="M115 0v1044l256 25l14 -184q78 201 322 200q178 0 252.5 -96t74.5 -289v-495q0 -57 14.5 -100.5t49.5 -75.5q-23 -29 -69 -44.5t-91 -15.5q-106 0 -161.5 54.5t-55.5 160.5v500q0 121 -22.5 183.5t-106.5 62.5q-100 0 -132 -92.5t-32 -243.5v-594h-313zM115 0zM256 1352 q0 117 166 116q41 0 106.5 -10t86.5 -12q127 -23 188 -23q84 0 121 37q22 -22 36.5 -53t14.5 -61q0 -117 -166 -117q-41 0 -107.5 10t-86.5 12q-127 23 -187 23q-84 0 -121 -37q-23 23 -37 53.5t-14 61.5z" />
<glyph unicode="&#xf2;" horiz-adv-x="1112" d="M61 0zM61 516q0 262 126 415.5t370 153.5q246 0 370 -145t124 -403q0 -266 -125 -424t-369 -158q-242 0 -369 151.5t-127 409.5zM241 1432q0 43 30 80.5t75 54.5l399 -310l-47 -83l-256 90q-94 35 -147.5 70.5t-53.5 97.5zM389 526q0 -199 31 -323.5t137 -124.5 q107 0 137.5 125t30.5 323q0 188 -33 312.5t-135 124.5t-135 -125t-33 -312z" />
<glyph unicode="&#xf3;" horiz-adv-x="1112" d="M61 0zM61 516q0 262 126 415.5t370 153.5q246 0 370 -145t124 -403q0 -266 -125 -424t-369 -158q-242 0 -369 151.5t-127 409.5zM368 1257l402 310q43 -16 72.5 -54t29.5 -81q0 -63 -53 -99.5t-147 -68.5l-256 -90zM389 526q0 -199 31 -323.5t137 -124.5q107 0 137.5 125 t30.5 323q0 188 -33 312.5t-135 124.5t-135 -125t-33 -312z" />
<glyph unicode="&#xf4;" horiz-adv-x="1112" d="M61 0zM61 516q0 262 126 415.5t370 153.5q246 0 370 -145t124 -403q0 -266 -125 -424t-369 -158q-242 0 -369 151.5t-127 409.5zM227 1272l304 254h49l309 -254l-70 -84l-262 127l-260 -127zM389 526q0 -199 31 -323.5t137 -124.5q107 0 137.5 125t30.5 323 q0 188 -33 312.5t-135 124.5t-135 -125t-33 -312z" />
<glyph unicode="&#xf5;" horiz-adv-x="1112" d="M61 0zM61 516q0 262 126 415.5t370 153.5q246 0 370 -145t124 -403q0 -266 -125 -424t-369 -158q-242 0 -369 151.5t-127 409.5zM198 1352q0 117 166 116q41 0 106.5 -10t86.5 -12q127 -23 188 -23q84 0 121 37q22 -22 36.5 -53t14.5 -61q0 -117 -166 -117 q-41 0 -107.5 10t-86.5 12q-127 23 -187 23q-84 0 -121 -37q-23 23 -37 53.5t-14 61.5zM389 526q0 -199 31 -323.5t137 -124.5q107 0 137.5 125t30.5 323q0 188 -33 312.5t-135 124.5t-135 -125t-33 -312z" />
<glyph unicode="&#xf6;" horiz-adv-x="1112" d="M61 0zM61 516q0 262 126 415.5t370 153.5q246 0 370 -145t124 -403q0 -266 -125 -424t-369 -158q-242 0 -369 151.5t-127 409.5zM147 1356q0 72 54.5 111.5t138.5 39.5t134 -38.5t50 -108.5q0 -72 -53 -110t-137 -38q-82 0 -134.5 38t-52.5 106zM389 526 q0 -199 31 -323.5t137 -124.5q107 0 137.5 125t30.5 323q0 188 -33 312.5t-135 124.5t-135 -125t-33 -312zM588 1356q0 72 54.5 111.5t138.5 39.5t134 -38.5t50 -108.5q0 -72 -53 -110t-137 -38q-82 0 -134.5 38t-52.5 106z" />
<glyph unicode="&#xf7;" d="M166 479q0 51 29.5 80t83.5 29h725q20 -49 20 -82q0 -51 -29.5 -80t-83.5 -29h-725q-20 49 -20 82zM453 162q0 57 43 90t106 33q61 0 100 -32t39 -87q0 -57 -41 -88t-104 -31t-103 31t-40 84zM453 815q0 57 43 90t106 33q61 0 100 -32t39 -87q0 -57 -41 -88t-104 -31 t-103 31t-40 84z" />
<glyph unicode="&#xf8;" horiz-adv-x="1112" d="M61 516q0 262 126 415.5t370 153.5q131 0 234 -45l120 177q41 -2 83 -26t42 -63q0 -31 -30 -77l-78 -113q123 -137 123 -401q0 -266 -125 -424t-369 -158q-152 0 -260 63l-90 -131q-43 2 -84 24.5t-41 63.5q0 33 31 78l55 80q-106 143 -107 383zM389 457l287 417 q-41 88 -119 89q-102 0 -135 -125t-33 -312v-69zM422 201q43 -123 135 -123q107 0 137.5 125t30.5 323q0 74 -2 113z" />
<glyph unicode="&#xf9;" horiz-adv-x="1163" d="M113 0zM113 483v561h317v-550q0 -129 7 -208t39 -131.5t99 -52.5q78 0 114 65.5t36 164.5v712h313v-839q0 -57 14.5 -100.5t49.5 -75.5q-25 -29 -69 -44.5t-89 -15.5q-74 0 -125 32t-69 91q-41 -70 -114 -103.5t-163 -33.5q-150 0 -228.5 63.5t-105 176t-26.5 288.5z M260 1432q0 43 30 80.5t75 54.5l399 -310l-47 -83l-256 90q-94 35 -147.5 70.5t-53.5 97.5z" />
<glyph unicode="&#xfa;" horiz-adv-x="1163" d="M113 0zM113 483v561h317v-550q0 -129 7 -208t39 -131.5t99 -52.5q78 0 114 65.5t36 164.5v712h313v-839q0 -57 14.5 -100.5t49.5 -75.5q-25 -29 -69 -44.5t-89 -15.5q-74 0 -125 32t-69 91q-41 -70 -114 -103.5t-163 -33.5q-150 0 -228.5 63.5t-105 176t-26.5 288.5z M387 1257l402 310q43 -16 72.5 -54t29.5 -81q0 -63 -53 -99.5t-147 -68.5l-256 -90z" />
<glyph unicode="&#xfb;" horiz-adv-x="1163" d="M113 0zM113 483v561h317v-550q0 -129 7 -208t39 -131.5t99 -52.5q78 0 114 65.5t36 164.5v712h313v-839q0 -57 14.5 -100.5t49.5 -75.5q-25 -29 -69 -44.5t-89 -15.5q-74 0 -125 32t-69 91q-41 -70 -114 -103.5t-163 -33.5q-150 0 -228.5 63.5t-105 176t-26.5 288.5z M245 1272l304 254h49l309 -254l-70 -84l-262 127l-260 -127z" />
<glyph unicode="&#xfc;" horiz-adv-x="1163" d="M113 0zM113 483v561h317v-550q0 -129 7 -208t39 -131.5t99 -52.5q78 0 114 65.5t36 164.5v712h313v-839q0 -57 14.5 -100.5t49.5 -75.5q-25 -29 -69 -44.5t-89 -15.5q-74 0 -125 32t-69 91q-41 -70 -114 -103.5t-163 -33.5q-150 0 -228.5 63.5t-105 176t-26.5 288.5z M166 1356q0 72 54.5 111.5t138.5 39.5t134 -38.5t50 -108.5q0 -72 -53 -110t-137 -38q-82 0 -134.5 38t-52.5 106zM606 1356q0 72 54.5 111.5t138.5 39.5t134 -38.5t50 -108.5q0 -72 -53 -110t-137 -38q-82 0 -134.5 38t-52.5 106z" />
<glyph unicode="&#xfd;" horiz-adv-x="978" d="M18 0zM18 1044h328l176 -786l191 786h270l-485 -1439l-314 26l222 480h-127zM333 1257l402 310q43 -16 72.5 -54t29.5 -81q0 -63 -53 -99.5t-147 -68.5l-256 -90z" />
<glyph unicode="&#xfe;" horiz-adv-x="1150" d="M127 -395v1829l313 32v-237q0 -209 -20 -297q88 154 297 153q201 0 287 -152.5t86 -395.5q0 -270 -130.5 -426t-386.5 -156q-76 0 -133 16v-340zM440 127q70 -49 146 -49q111 0 143.5 125t32.5 323q0 184 -30 294t-132 110q-92 0 -126 -81t-34 -208v-514z" />
<glyph unicode="&#xff;" horiz-adv-x="978" d="M18 0zM18 1044h328l176 -786l191 786h270l-485 -1439l-314 26l222 480h-127zM112 1356q0 72 54.5 111.5t138.5 39.5t134 -38.5t50 -108.5q0 -72 -53 -110t-137 -38q-82 0 -134.5 38t-52.5 106zM553 1356q0 72 54.5 111.5t138.5 39.5t134 -38.5t50 -108.5q0 -72 -53 -110 t-137 -38q-82 0 -134.5 38t-52.5 106z" />
<glyph unicode="&#x152;" horiz-adv-x="1603" d="M55 668q0 334 142.5 529.5t443.5 195.5q135 0 240 -41h661v-162h-383v-414h322v-164h-322v-450h414l-17 -162h-671q-109 -45 -244 -45q-297 0 -441.5 192.5t-144.5 520.5zM420 682q0 -252 42 -416t179 -164q139 0 221 197v752q-82 195 -221 194q-135 0 -178 -160.5 t-43 -402.5z" />
<glyph unicode="&#x153;" horiz-adv-x="1683" d="M61 516q0 262 126 415.5t370 153.5q211 0 340 -122q145 123 358 122q166 0 274.5 -75.5t108.5 -223.5q0 -182 -129 -251.5t-352 -69.5q-68 0 -108 6q6 -145 56 -229t169 -84q88 0 160.5 42t111.5 119q27 -12 39 -39.5t12 -60.5q0 -84 -55 -143.5t-141 -90t-178 -30.5 q-207 0 -338 121q-127 -121 -328 -121q-242 0 -369 151.5t-127 409.5zM389 526q0 -199 31 -323.5t137 -124.5q102 0 134 120.5t34 313.5v31q-2 182 -35 301t-133 119q-102 0 -135 -125t-33 -312zM1049 565h41q129 -2 194.5 47.5t65.5 167.5q0 78 -31 131.5t-94 53.5 q-99 0 -136.5 -120t-39.5 -280z" />
<glyph unicode="&#x178;" horiz-adv-x="1081" d="M2 0zM2 1352h356l226 -545l204 545h285l-371 -734v-618h-340v596zM153 1600q0 72 54.5 111.5t138.5 39.5t134 -38.5t50 -108.5q0 -72 -53 -110t-137 -38q-82 0 -134.5 38t-52.5 106zM592 1600q0 72 54.5 111.5t138.5 39.5t134 -38.5t50 -108.5q0 -72 -53 -110t-137 -38 q-82 0 -134.5 38t-52.5 106z" />
<glyph unicode="&#x2c6;" horiz-adv-x="702" d="M20 1272l304 254h49l309 -254l-70 -84l-262 127l-260 -127z" />
<glyph unicode="&#x2dc;" horiz-adv-x="804" d="M53 1352q0 117 166 116q41 0 106.5 -10t86.5 -12q127 -23 188 -23q84 0 121 37q22 -22 36.5 -53t14.5 -61q0 -117 -166 -117q-41 0 -107.5 10t-86.5 12q-127 23 -187 23q-84 0 -121 -37q-23 23 -37 53.5t-14 61.5z" />
<glyph unicode="&#x2000;" horiz-adv-x="900" />
<glyph unicode="&#x2001;" horiz-adv-x="1800" />
<glyph unicode="&#x2002;" horiz-adv-x="900" />
<glyph unicode="&#x2003;" horiz-adv-x="1800" />
<glyph unicode="&#x2004;" horiz-adv-x="600" />
<glyph unicode="&#x2005;" horiz-adv-x="450" />
<glyph unicode="&#x2006;" horiz-adv-x="300" />
<glyph unicode="&#x2007;" horiz-adv-x="300" />
<glyph unicode="&#x2008;" horiz-adv-x="225" />
<glyph unicode="&#x2009;" horiz-adv-x="360" />
<glyph unicode="&#x200a;" horiz-adv-x="100" />
<glyph unicode="&#x2010;" horiz-adv-x="800" d="M78 461q0 117 131 123l496 20q8 -16 13 -39.5t5 -40.5q0 -115 -133 -121l-494 -20q-8 14 -13 37.5t-5 40.5z" />
<glyph unicode="&#x2011;" horiz-adv-x="800" d="M78 461q0 117 131 123l496 20q8 -16 13 -39.5t5 -40.5q0 -115 -133 -121l-494 -20q-8 14 -13 37.5t-5 40.5z" />
<glyph unicode="&#x2012;" horiz-adv-x="800" d="M78 461q0 117 131 123l496 20q8 -16 13 -39.5t5 -40.5q0 -115 -133 -121l-494 -20q-8 14 -13 37.5t-5 40.5z" />
<glyph unicode="&#x2013;" horiz-adv-x="978" d="M14 471q0 119 138 119h798q14 -29 15 -74q0 -121 -140 -121h-798q-13 27 -13 76z" />
<glyph unicode="&#x2014;" horiz-adv-x="1925" d="M14 471q0 119 138 119h1744q14 -29 15 -74q0 -121 -139 -121h-1745q-13 27 -13 76z" />
<glyph unicode="&#x2018;" horiz-adv-x="565" d="M141 1171q0 78 39 149t104.5 114t143.5 43q47 0 84 -15q-86 -127 -86 -266q0 -106 49 -192q-23 -16 -60.5 -25.5t-72.5 -9.5q-98 0 -149.5 52t-51.5 150z" />
<glyph unicode="&#x2019;" horiz-adv-x="491" d="M53 983q86 127 86 268q0 102 -49 193q23 14 60.5 23.5t72.5 9.5q99 0 150 -52.5t51 -150.5q0 -78 -39 -148.5t-105.5 -113.5t-142.5 -43q-47 0 -84 14z" />
<glyph unicode="&#x201a;" horiz-adv-x="491" d="M53 -250q86 127 86 268q0 102 -49 193q23 14 60.5 23.5t72.5 9.5q99 0 150 -52.5t51 -150.5q0 -78 -39 -148.5t-104.5 -113.5t-143.5 -43q-47 0 -84 14z" />
<glyph unicode="&#x201c;" horiz-adv-x="925" d="M68 1171q0 78 38.5 149t104 114t143.5 43q47 0 84 -15q-86 -127 -86 -266q0 -106 49 -192q-23 -16 -60.5 -25.5t-74.5 -9.5q-98 0 -148 52t-50 150zM502 1171q0 78 39 149t104.5 114t140.5 43q49 0 86 -15q-86 -123 -86 -266q0 -106 50 -192q-23 -16 -61 -25.5t-75 -9.5 q-98 0 -148 52t-50 150z" />
<glyph unicode="&#x201d;" horiz-adv-x="925" d="M53 983q86 127 86 268q0 102 -49 193q23 14 60.5 23.5t72.5 9.5q99 0 150 -52.5t51 -150.5q0 -78 -39 -148.5t-105.5 -113.5t-142.5 -43q-47 0 -84 14zM485 983q86 123 86 268q0 102 -49 193q23 14 62 23.5t73 9.5q99 0 149 -52.5t50 -150.5q0 -78 -39 -148.5 t-104.5 -113.5t-141.5 -43q-49 0 -86 14z" />
<glyph unicode="&#x201e;" horiz-adv-x="925" d="M53 -250q86 127 86 268q0 102 -49 193q23 14 60.5 23.5t72.5 9.5q99 0 150 -52.5t51 -150.5q0 -78 -39 -147.5t-105.5 -112.5t-142.5 -43q-43 0 -84 12zM485 -250q86 123 86 268q0 102 -49 193q23 14 62 23.5t73 9.5q99 0 149 -52.5t50 -150.5q0 -78 -39 -147.5 t-104.5 -112.5t-141.5 -43q-45 0 -86 12z" />
<glyph unicode="&#x2022;" horiz-adv-x="577" d="M41 524q0 92 66.5 143.5t166.5 51.5q99 0 160.5 -49t61.5 -138q0 -92 -64.5 -142t-167.5 -50q-100 0 -161.5 48t-61.5 136z" />
<glyph unicode="&#x2026;" horiz-adv-x="1462" d="M66 0zM66 102q0 72 54 112t138 40q82 0 132 -39t50 -109q0 -72 -53 -109.5t-137 -37.5q-82 0 -133 37t-51 106zM553 102q0 72 54 112t138 40q82 0 132 -39t50 -109q0 -72 -53 -109.5t-137 -37.5q-82 0 -133 37t-51 106zM1035 102q0 72 54 112t138 40q82 0 132 -39 t50 -109q0 -72 -53 -109.5t-137 -37.5q-82 0 -133 37t-51 106z" />
<glyph unicode="&#x202f;" horiz-adv-x="360" />
<glyph unicode="&#x2039;" horiz-adv-x="591" d="M45 649l258 395h219l-172 -395l168 -391h-217z" />
<glyph unicode="&#x203a;" horiz-adv-x="591" d="M70 1044h221l258 -395l-258 -391h-217l168 391z" />
<glyph unicode="&#x205f;" horiz-adv-x="450" />
<glyph unicode="&#x20ac;" d="M-6 487q0 43 26.5 64.5t73.5 21.5h47q-2 27 -2 78q0 37 2 56h-137q-10 27 -10 55q0 43 26.5 64.5t73.5 21.5h64q45 227 193.5 365.5t398.5 138.5q412 0 411 -242q0 -86 -59.5 -133t-147.5 -47q-66 0 -106 24q14 49 14 107q0 76 -31.5 109.5t-105.5 33.5q-113 0 -160 -100 t-57 -256h354q8 -18 8 -53q0 -88 -100 -88h-266v-11q0 -82 4 -123h354q8 -18 8 -53q0 -88 -100 -88h-244q51 -233 258 -233q106 0 179 43t118 135q80 -39 80 -135q0 -92 -65.5 -158t-168 -97.5t-210.5 -31.5q-254 0 -387 131t-172 346h-154q-10 27 -10 55z" />
<glyph unicode="&#x2122;" horiz-adv-x="1548" d="M14 1243v109h547l-8 -109h-160v-635h-215v635h-164zM569 608l76 744h258l111 -471l112 471h254l72 -744h-209l-45 582l-149 -582h-150l-145 584l-45 -584h-140z" />
<glyph unicode="&#x25fc;" horiz-adv-x="1044" d="M0 0v1044h1044v-1044h-1044z" />
</font>
</defs>
</svg>
